<?xml version="1.0" encoding="UTF-8"?>
<svg version="1.1" xmlns="http://www.w3.org/2000/svg" width="3375" height="2250">
<path d="M0 0 C1113.75 0 2227.5 0 3375 0 C3375 742.5 3375 1485 3375 2250 C2261.25 2250 1147.5 2250 0 2250 C0 1507.5 0 765 0 0 Z " fill="#E28DA9" transform="translate(0,0)"/>
<path d="M0 0 C1113.75 0 2227.5 0 3375 0 C3375 252.45 3375 504.9 3375 765 C3372.85913517 762.32391896 3370.72741689 759.63958961 3368.66015625 756.90625 C3354.91834748 738.78249369 3339.53215374 725.3628177 3318.80761719 715.83447266 C3317.24876374 715.11483988 3315.70480313 714.36310567 3314.1640625 713.60546875 C3285.96557961 700.58124278 3252.03665489 699.81846666 3221.4609375 699.8671875 C3219.92225123 699.86651026 3218.38356506 699.8655368 3216.84487915 699.86428833 C3213.64315762 699.86282837 3210.4414643 699.86490853 3207.23974609 699.86962891 C3203.20599204 699.87529685 3199.17230439 699.8719611 3195.13855267 699.866189 C3161.95006228 699.58170967 3161.95006228 699.58170967 3129 703 C3128.23961426 703.12745605 3127.47922852 703.25491211 3126.69580078 703.38623047 C3100.99540112 707.77534117 3076.59225894 715.55259416 3052 724 C3050.93362305 724.36335449 3049.86724609 724.72670898 3048.76855469 725.10107422 C3046.07277857 726.01977948 3043.37938415 726.94496053 3040.6875 727.875 C3039.96151611 728.12435303 3039.23553223 728.37370605 3038.48754883 728.63061523 C3032.21729403 730.82902996 3026.11770127 733.41202054 3020 736 C3018.088608 736.80093956 3016.17715017 737.60172205 3014.265625 738.40234375 C3001.29272147 743.86240706 2988.37516668 749.43655455 2975.4894104 755.09838867 C2966.84188089 758.89776326 2958.18788076 762.67496521 2949.44555664 766.25268555 C2942.93776316 768.94300819 2936.58613373 771.9691471 2930.21383667 774.96218872 C2923.56145032 778.08072121 2916.89445215 781.16810842 2910.23022461 784.26123047 C2908.4532142 785.08639299 2906.6765207 785.91223833 2904.90014648 786.73876953 C2900.55634112 788.75972068 2896.20858434 790.77050525 2891.84960938 792.75854492 C2888.80243854 794.15141006 2885.79437342 795.59477383 2882.80664062 797.1105957 C2873.4486414 801.74160391 2865.27241644 803.02069448 2854.87484741 803.15267944 C2850.48060065 803.21388723 2846.0905484 803.39672929 2841.69921875 803.5625 C2840.80227798 803.59389572 2839.90533722 803.62529144 2838.98121643 803.65763855 C2799.78195559 805.11069266 2760.43503779 812.08526219 2722.35986328 821.2109375 C2717.15353721 822.43364102 2711.9203787 823.52285697 2706.6875 824.625 C2699.34902386 826.19332125 2692.12085563 827.98053291 2684.91040039 830.05737305 C2678.68567017 831.84387685 2672.41535097 833.39995807 2666.125 834.9375 C2657.64883704 837.01994187 2649.28189309 839.3293612 2640.93920898 841.89257812 C2636.21094154 843.34435199 2631.47722385 844.69786883 2626.6875 845.9375 C2620.60947251 847.52456465 2614.60655752 849.30552892 2608.6015625 851.1484375 C2606.53836003 851.77898799 2604.47512653 852.40943694 2602.41186523 853.03979492 C2601.35111786 853.36426605 2600.29037048 853.68873718 2599.19747925 854.02304077 C2594.07500117 855.588165 2588.94960368 857.14364537 2583.82421875 858.69921875 C2582.78024933 859.01624756 2581.73627991 859.33327637 2580.66067505 859.65991211 C2574.924942 861.40166378 2569.18882404 863.14214174 2563.45239258 864.8815918 C2560.9265844 865.64758857 2558.40078707 866.41362113 2555.875 867.1796875 C2555.237777 867.37294176 2554.60055401 867.56619602 2553.94402122 867.76530647 C2545.10530965 870.44622153 2536.26971179 873.1371757 2527.43623352 875.83528137 C2389.91556825 917.83825233 2389.91556825 917.83825233 2327 925 C2325.83710449 925.1335791 2324.67420898 925.2671582 2323.47607422 925.40478516 C2313.66553146 926.49186675 2303.84359527 927.29004642 2294 928 C2293.07493652 928.0678772 2292.14987305 928.13575439 2291.19677734 928.20568848 C2231.21511973 932.55807076 2169.11115403 934.6468825 2109.22583008 928.23754883 C2106.89411875 927.98869996 2104.56148305 927.75043868 2102.22851562 927.51367188 C2092.13363819 926.48030441 2082.06354008 925.30387284 2072 924 C2070.99517578 923.87125488 2069.99035156 923.74250977 2068.95507812 923.60986328 C2056.29983808 921.95414361 2043.84659236 919.46366986 2031.3828125 916.734375 C2027.76941422 915.94994212 2024.15059229 915.19400187 2020.53125 914.4375 C1994.40311778 908.87957798 1970.03440168 900.75939864 1946 889 C1945.24686523 888.63519531 1944.49373047 888.27039063 1943.71777344 887.89453125 C1939.11202513 885.65910529 1934.55004189 883.3463435 1930 881 C1929.29697754 880.64147949 1928.59395508 880.28295898 1927.86962891 879.91357422 C1918.13173412 874.94098673 1908.61237058 869.66832994 1899.1875 864.125 C1882.80462613 854.49662944 1866.4283281 845.14943777 1848.87939453 837.79638672 C1847.07213446 837.03056672 1845.28352641 836.22117642 1843.49609375 835.41015625 C1835.70798297 832.26880654 1828.8841934 831.66039351 1820.5625 831.6875 C1819.57701172 831.67138672 1818.59152344 831.65527344 1817.57617188 831.63867188 C1808.54332288 831.63268589 1801.20946198 833.31152156 1794 839 C1791.59787751 841.43105347 1789.4131838 844.0369326 1787.23242188 846.66601562 C1783.47455506 850.98783359 1779.69054646 853.51016308 1773.82397461 854.28881836 C1771.43506819 854.43839301 1769.08079261 854.46779484 1766.6875 854.4375 C1765.84372803 854.42920166 1764.99995605 854.42090332 1764.13061523 854.41235352 C1757.67374274 854.23720329 1752.65684988 853.2310995 1747 850 C1746.15566406 849.56042969 1745.31132813 849.12085938 1744.44140625 848.66796875 C1737.73090281 844.99161805 1731.59556736 840.62458121 1725.375 836.1875 C1716.27262093 829.71336322 1706.93985184 824.08682192 1697 819 C1695.90816406 818.43925781 1694.81632812 817.87851562 1693.69140625 817.30078125 C1673.37937678 807.44233128 1650.42427767 800.63662446 1628.11643982 797.31747437 C1626.27087925 797.04063296 1624.42778842 796.74742551 1622.58520508 796.45141602 C1607.61464992 794.34701593 1592.5217122 794.64553586 1577.4375 794.6875 C1576.69377262 794.68888977 1575.95004524 794.69027954 1575.18378067 794.69171143 C1516.33583775 794.80371392 1457.95132043 801.06144025 1399.43847656 806.84326172 C1382.93022674 808.47209992 1366.41962329 809.918398 1349.875 811.125 C1348.70566925 811.21060181 1347.5363385 811.29620361 1346.33157349 811.38439941 C1328.89058034 812.65253346 1311.49162425 813.81701318 1294 814 C1293.1760675 814.00988953 1292.35213501 814.01977905 1291.50323486 814.02996826 C1285.66302185 814.09883096 1279.82301 814.14613645 1273.98245239 814.17321777 C1272.03865125 814.18252616 1270.09486006 814.19436469 1268.15109253 814.20910645 C1212.49637803 814.57757163 1161.86764028 797.09643291 1111.38093567 775.18339539 C1065.6432437 754.12644077 1065.6432437 754.12644077 1017.125 758.125 C996.43804461 767.20707798 985.72460982 783.0070656 974.875 801.8125 C962.95625791 822.40446171 962.95625791 822.40446171 953.16796875 825.59765625 C947.49540242 826.65040279 941.1902865 827.44359792 936.25 824.1875 C935.5075 823.135625 934.765 822.08375 934 821 C932.66863014 819.16524029 931.33509681 817.33204951 930 815.5 C929.30390625 814.53707031 928.6078125 813.57414063 927.890625 812.58203125 C919.3635622 800.93660044 906.40757959 797.944232 893 795 C892.37319336 794.823479 891.74638672 794.64695801 891.10058594 794.46508789 C857.35309175 786.99310086 816.79330239 806.15221298 786.18457031 818.14941406 C783.13400632 819.33718395 780.06547433 820.47636165 777 821.625 C771.73255215 823.64937906 766.65044256 825.98286658 761.54760742 828.38793945 C758.06949204 829.96842228 754.56589975 831.40453356 751.01171875 832.8046875 C744.00778697 835.58148304 737.04934978 838.45706578 730.10528564 841.38034058 C728.11949966 842.21612005 726.1328142 843.04973397 724.14599609 843.88305664 C717.6906453 846.59274382 711.24284051 849.31867332 704.80859375 852.078125 C694.22798254 856.60962832 683.68623078 860.98058058 672.78515625 864.6796875 C669.04623044 865.95741565 665.40354623 867.43193942 661.75 868.9375 C644.6124427 875.85392196 627.02833985 880.97572479 609 885 C607.79730469 885.26941406 606.59460938 885.53882813 605.35546875 885.81640625 C561.49063256 893.70655917 523.45366233 878.10128013 486.59765625 856.125 C471.28965285 847.0335054 455.83617676 843.13877264 438.08984375 846.80859375 C424.25170012 851.3173012 413.36873161 860.06329888 403 870 C392.90259321 879.26910389 382.64197751 887.51454424 370 893 C369.2471875 893.32742188 368.494375 893.65484375 367.71875 893.9921875 C351.74740849 900.44215234 334.16281438 896.95487087 318.78833008 890.56884766 C306.85591348 885.36280742 295.50709455 878.92805945 284.09570312 872.68798828 C276.77902669 868.69843774 269.4148897 864.80371939 262 861 C261.36126953 860.66919434 260.72253906 860.33838867 260.06445312 859.99755859 C243.61131177 851.55949685 225.84960652 846.49070938 207.375 845.625 C185.87705884 844.3307362 171.47537747 827.06566846 158 812 C156.74512313 810.54586102 155.49404699 809.08841491 154.25 807.625 C146.40534928 798.60461539 135.31984149 788.47020372 122.84765625 787.59375 C102.17701125 786.91403668 87.7486039 796.61394756 73.0625 810.1875 C71.0259876 812.1096185 69.01192818 814.05189851 67 816 C66.32324219 816.63679687 65.64648438 817.27359375 64.94921875 817.9296875 C60.31497425 822.38282359 56.34196864 827.34393353 52.32910156 832.35449219 C50.89798484 834.12630091 49.44691223 835.88034246 47.9921875 837.6328125 C35.19302065 853.10246383 23.89095486 869.46986032 12.82421875 886.2109375 C12.20466309 887.14776367 11.58510742 888.08458984 10.94677734 889.04980469 C9.55258924 891.16259237 8.16274572 893.27793269 6.77587891 895.39550781 C6.05190918 896.49475586 5.32793945 897.59400391 4.58203125 898.7265625 C3.92050049 899.73541504 3.25896973 900.74426758 2.57739258 901.78369141 C2.05685303 902.51507324 1.53631348 903.24645508 1 904 C0.67 904 0.34 904 0 904 C0 605.68 0 307.36 0 0 Z " fill="#FAEEF2" transform="translate(0,0)"/>
<path d="M0 0 C0.79612701 -0.00073643 1.59225403 -0.00147285 2.4125061 -0.0022316 C56.47617385 -0.04293349 113.07768487 0.90535966 153.875 41.25 C154.94427734 42.21099609 154.94427734 42.21099609 156.03515625 43.19140625 C165.61170603 51.9813811 174.71390225 62.69807593 175.35157394 76.08802891 C175.44414087 79.77120934 175.38855394 83.44127054 175.3180542 87.12440491 C175.3232981 89.18499718 175.33382526 91.24558152 175.34912419 93.30612367 C175.37576801 98.92394044 175.32823057 104.53897573 175.26778746 110.15643847 C175.21570101 116.23049155 175.23352088 122.30440258 175.24261475 128.37861633 C175.24889045 138.88763029 175.21183769 149.39584988 175.14376068 159.9045887 C175.07259719 170.91816544 175.02653765 181.93138353 175.01352692 192.94518852 C175.01270204 193.63164795 175.01187717 194.31810738 175.01102729 195.02536861 C175.00696693 198.51197827 175.00335046 201.99858824 174.99990478 205.48519855 C174.9747433 230.13922003 174.89401751 254.79277452 174.78027344 279.4465332 C174.66994554 303.38758879 174.58499877 327.32851628 174.53417969 351.26977539 C174.53260137 352.00859118 174.53102306 352.74740697 174.52939692 353.50861111 C174.51357379 360.92854299 174.49826416 368.34847586 174.48333061 375.76840959 C174.45290136 390.88178162 174.41904635 405.99514533 174.38311768 421.10850525 C174.3814702 421.80329383 174.37982272 422.4980824 174.37812531 423.21392518 C174.26783846 469.55948135 174.07745967 515.9047644 173.875 562.25 C172.44559763 561.30198479 171.01685167 560.35297982 169.58837891 559.40356445 C168.79267487 558.87519485 167.99697083 558.34682526 167.17715454 557.80244446 C164.14205189 555.75574073 161.20178802 553.60286275 158.25 551.4375 C126.26685576 528.41103222 87.2293326 513.50313344 47.4375 519.375 C7.95610549 526.06270617 -24.46676577 548.51282627 -54.125 574.25 C-54.82496094 574.84941406 -55.52492188 575.44882813 -56.24609375 576.06640625 C-67.46385787 585.74493455 -78.08359986 596.04417348 -88.53857422 606.53320312 C-90.5154601 608.51550244 -92.49771039 610.49232633 -94.48046875 612.46875 C-102.87661877 620.8358465 -102.87661877 620.8358465 -110.76611328 629.67675781 C-112.30497907 631.45836958 -113.94460616 633.10197759 -115.625 634.75 C-118.5704073 637.64999353 -121.27963709 640.68626431 -123.9765625 643.81640625 C-126.80119975 647.0159499 -129.71246313 650.1305706 -132.625 653.25 C-136.5752456 657.48371359 -140.47199891 661.74340272 -144.25390625 666.12890625 C-146.828929 669.04798214 -149.47803175 671.89621842 -152.125 674.75 C-155.33661496 678.21285207 -158.53602867 681.67648414 -161.625 685.25 C-165.64918504 689.89930116 -169.84468771 694.38859518 -174.0234375 698.8984375 C-176.86211141 701.96209609 -179.68265701 705.04171313 -182.5 708.125 C-184.37291816 710.16858443 -186.24844451 712.2097555 -188.125 714.25 C-188.91729004 715.11214111 -188.91729004 715.11214111 -189.72558594 715.99169922 C-196.97908425 723.86976904 -204.3717915 731.5666736 -211.9909668 739.09228516 C-215.7133682 742.78365424 -219.27313892 746.52374037 -222.53515625 750.63671875 C-223.05980469 751.16910156 -223.58445312 751.70148437 -224.125 752.25 C-224.86830566 753.01094971 -225.61161133 753.77189941 -226.37744141 754.5559082 C-228.81807943 756.13280811 -229.9788557 756.26510247 -232.90995789 755.96220398 C-236.54303267 755.09542322 -240.10632321 754.06149831 -243.67578125 752.96875 C-245.05718457 752.56725786 -246.43931246 752.16825162 -247.82209778 751.77154541 C-250.80077362 750.9119141 -253.77413334 750.03641027 -256.7444458 749.14831543 C-261.49679186 747.72813335 -266.2594907 746.34533734 -271.02490234 744.96972656 C-272.66212981 744.49671377 -274.29933669 744.02362975 -275.93652344 743.55047607 C-276.75535004 743.31383995 -277.57417664 743.07720383 -278.41781616 742.83339691 C-280.93948912 742.10314289 -283.46011923 741.36939021 -285.98046875 740.63458252 C-302.5951152 735.79365587 -319.26899649 731.17899319 -335.96395493 726.62385559 C-338.2612755 725.99692295 -340.55835154 725.36910112 -342.8553772 724.74108887 C-431.71990995 700.45358115 -520.49673057 678.12121947 -684.44530869 651.2389431 C-830.17672335 627.94809269 -830.17672335 627.94809269 -877.125 613.25 C-878.00687988 612.97430176 -878.88875977 612.69860352 -879.79736328 612.41455078 C-892.06993387 608.4778093 -903.70164176 603.29776576 -915.3125 597.75 C-915.97026428 597.43893311 -916.62802856 597.12786621 -917.3057251 596.80737305 C-942.11072473 585.01359679 -942.11072473 585.01359679 -945.92578125 575.1875 C-946.26642311 573.89774149 -946.5997886 572.60603882 -946.92578125 571.3125 C-950.35406685 565.41629546 -957.56712009 562.96606267 -963.6875 560.8125 C-964.51556152 560.51738525 -965.34362305 560.22227051 -966.19677734 559.91821289 C-1023.41701422 539.97296487 -1090.24147538 532.56637004 -1149.375 546.25 C-1182.60896803 553.88512403 -1210.45036035 556.88459052 -1241.6394043 540.50863647 C-1262.98690081 529.34407902 -1283.76654019 521.3221743 -1308.125 520.25 C-1309.05183594 520.20875 -1309.97867187 520.1675 -1310.93359375 520.125 C-1331.56832793 519.67702748 -1352.03894563 524.68320213 -1371.75 530.24609375 C-1372.43824419 530.43966461 -1373.12648838 530.63323547 -1373.83558846 530.83267212 C-1390.73742198 535.59981683 -1407.43057426 540.99368428 -1424.12921143 546.42181396 C-1440.27420178 551.66928165 -1456.43296407 556.74693408 -1472.8125 561.21875 C-1473.48613523 561.40354416 -1474.15977047 561.58833832 -1474.85381889 561.7787323 C-1505.5827469 570.17391 -1538.6061452 575.97697916 -1570.125 568.25 C-1570.96224609 568.05132324 -1571.79949219 567.85264648 -1572.66210938 567.64794922 C-1593.30220332 562.65980197 -1612.24439976 554.7362815 -1631.4375 545.8125 C-1671.06674942 527.40199502 -1707.18087979 520.31154293 -1750.93319702 519.34140015 C-1757.8340735 519.18798907 -1764.73346618 518.97965914 -1771.6328125 518.76953125 C-1772.31168455 518.74900003 -1772.9905566 518.72846882 -1773.69000053 518.70731544 C-1837.42088408 516.75560047 -1900.28488296 504.42545003 -1962.94238281 493.40332031 C-1981.52822151 490.13507806 -2000.11113654 486.97692141 -2018.8125 484.4375 C-2019.53403259 484.33831268 -2020.25556519 484.23912537 -2020.9989624 484.13693237 C-2026.0346029 483.44976685 -2031.07516861 482.82360881 -2036.125 482.25 C-2037.3115921 482.11514694 -2037.3115921 482.11514694 -2038.52215576 481.97756958 C-2056.59652917 479.98958764 -2074.7185607 479.63470271 -2092.8828125 479.22094727 C-2142.93381112 478.0425205 -2184.1315382 467.74121397 -2229.38598633 447.05224609 C-2267.59096312 429.59119568 -2306.06024318 412.53558734 -2348.125 407.25 C-2349.16130051 407.11750351 -2349.16130051 407.11750351 -2350.21853638 406.98233032 C-2357.28715018 406.16714403 -2364.26723253 406.17021848 -2371.375 406.2578125 C-2373.94921473 406.27534064 -2376.52343374 406.29224777 -2379.09765625 406.30859375 C-2383.10152774 406.33813401 -2387.10517066 406.37476912 -2391.10888672 406.42138672 C-2420.57834607 406.74562728 -2420.57834607 406.74562728 -2435.125 403.25 C-2435.98677856 403.0458548 -2436.84855713 402.84170959 -2437.7364502 402.63137817 C-2451.30819959 399.35936779 -2464.65449428 395.36291872 -2477.97918701 391.21279907 C-2550.82353308 368.27114592 -2550.82353308 368.27114592 -2623.625 383.375 C-2637.18340233 390.9663793 -2648.44245759 401.31826601 -2657.75 413.6875 C-2658.2965625 414.39970703 -2658.843125 415.11191406 -2659.40625 415.84570312 C-2659.94507812 416.55533203 -2660.48390625 417.26496094 -2661.0390625 417.99609375 C-2661.57047852 418.69460449 -2662.10189453 419.39311523 -2662.64941406 420.11279297 C-2664.17457999 422.21056258 -2664.17457999 422.21056258 -2665.24902344 424.53173828 C-2666.3702157 426.79175161 -2667.31756195 428.48346697 -2669.125 430.25 C-2671.78517736 430.90993802 -2674.23219727 430.96869592 -2676.97119141 431.02685547 C-2683.02040254 431.45486127 -2688.6278944 433.81410378 -2694.3125 435.8125 C-2695.64037068 436.26936183 -2696.96866604 436.72499103 -2698.29736328 437.17944336 C-2700.97552965 438.09646124 -2703.65168465 439.01903161 -2706.32666016 439.9453125 C-2710.72788456 441.46403609 -2715.151906 442.91045337 -2719.57763672 444.35595703 C-2729.72817254 447.67841312 -2739.74055735 451.29320153 -2749.72192383 455.0925293 C-2756.43036744 457.64049877 -2763.16587116 460.00504737 -2770.00390625 462.1796875 C-2773.20906404 463.23482338 -2773.20906404 463.23482338 -2776.55859375 464.7265625 C-2781.4093001 466.79860574 -2786.38931917 468.35172271 -2791.40625 469.96875 C-2795.07030752 471.23115637 -2798.56732136 472.71679105 -2802.125 474.25 C-2804.66170336 475.16678298 -2807.19912851 476.06270545 -2809.75 476.9375 C-2816.42254416 479.25657979 -2823.03206451 481.71388496 -2829.625 484.25 C-2836.5791051 486.92117564 -2843.55321513 489.50107125 -2850.58618164 491.95654297 C-2856.59329006 494.05502806 -2862.58069522 496.20545952 -2868.5625 498.375 C-2869.91202759 498.86226562 -2869.91202759 498.86226562 -2871.28881836 499.359375 C-2876.47494396 501.24367209 -2881.60803349 503.22863752 -2886.72436523 505.29443359 C-2890.43493088 506.77141457 -2894.18437514 508.13567241 -2897.9375 509.5 C-2904.87140185 512.03880447 -2911.78755646 514.62027014 -2918.6875 517.25 C-2919.56760742 517.58539795 -2920.44771484 517.9207959 -2921.35449219 518.26635742 C-2925.49363952 519.84814121 -2929.62725556 521.44232168 -2933.75 523.06640625 C-2941.15851053 525.984788 -2948.5816225 528.7856525 -2956.11328125 531.37109375 C-2968.25307315 535.58240456 -2980.24759701 540.16483265 -2992.25 544.75 C-2994.41527673 545.57444951 -2996.58064104 546.39866905 -2998.74609375 547.22265625 C-3008.18238288 550.81668401 -3017.60925787 554.43163428 -3027.01171875 558.11328125 C-3033.2304371 560.54454039 -3039.47985363 562.81796672 -3045.8125 564.9375 C-3055.34046305 568.19107158 -3064.74212121 571.7290611 -3074.125 575.375 C-3074.76327728 575.62285248 -3075.40155457 575.87070496 -3076.05917358 576.12606812 C-3082.42496719 578.60142073 -3088.77812101 581.10627841 -3095.11421204 583.65664673 C-3100.68356518 585.89763813 -3106.25170679 588.06921245 -3111.9375 590 C-3120.50380728 592.95899199 -3128.94417251 596.2288805 -3137.39428711 599.50244141 C-3143.90797259 602.02261452 -3150.43601617 604.48910915 -3157 606.875 C-3163.57601239 609.26627723 -3170.0768926 611.81123234 -3176.5625 614.4375 C-3195.89295276 622.25 -3195.89295276 622.25 -3201.125 622.25 C-3201.35399337 569.3821072 -3201.53014969 516.51426461 -3201.63565329 463.64597323 C-3201.64816005 457.40143252 -3201.6611033 451.15689278 -3201.67431641 444.91235352 C-3201.67825106 443.04762596 -3201.67825106 443.04762596 -3201.68226521 441.14522714 C-3201.72575357 421.02814498 -3201.8045855 400.9113492 -3201.89652796 380.7944368 C-3201.99011267 360.14566565 -3202.04560246 339.49704426 -3202.06588495 318.84806973 C-3202.07959194 306.11100962 -3202.12284989 293.37475902 -3202.20416467 280.63794816 C-3202.25711039 271.8984485 -3202.27298172 263.15936604 -3202.26001377 254.41971772 C-3202.25362162 249.3804665 -3202.26327198 244.34262762 -3202.31705475 239.30362892 C-3202.36602468 234.68159201 -3202.36798761 230.06190533 -3202.33398895 225.43975604 C-3202.32979273 223.77592622 -3202.34222726 222.11194465 -3202.37383182 220.44840973 C-3202.58851564 208.44119943 -3199.78328422 201.25646701 -3192.34503345 191.83013464 C-3190.5457408 189.4997685 -3188.96636236 187.03761803 -3187.375 184.5625 C-3175.75458802 167.15540513 -3163.54920871 150.31539449 -3150.125 134.25 C-3149.67398926 133.70730469 -3149.22297852 133.16460938 -3148.75830078 132.60546875 C-3114.45244443 91.43379422 -3114.45244443 91.43379422 -3090.89916992 87.91772461 C-3075.9508061 86.79727469 -3066.02166323 90.4195742 -3054.5 100.11328125 C-3048.62208549 105.40147079 -3043.22521921 111.04151888 -3038.05859375 117.01953125 C-3021.75785387 136.30055156 -3021.75785387 136.30055156 -2998.99707031 145.48364258 C-2998.24006836 145.53673584 -2997.48306641 145.5898291 -2996.703125 145.64453125 C-2985.47747621 146.51628215 -2974.90765792 147.92481285 -2964.125 151.25 C-2962.83227173 151.6363562 -2962.83227173 151.6363562 -2961.51342773 152.03051758 C-2953.07303921 154.67926931 -2945.23147252 158.30247609 -2937.3125 162.1875 C-2936.30262024 162.67830048 -2936.30262024 162.67830048 -2935.27233887 163.17901611 C-2925.33152584 168.01460413 -2915.66088741 173.20405376 -2906.0871582 178.73583984 C-2886.55542299 189.97346866 -2864.83003536 201.12983101 -2841.5625 196.5625 C-2840.07326651 196.16059965 -2838.59441122 195.71922375 -2837.125 195.25 C-2836.14144531 194.94320312 -2835.15789063 194.63640625 -2834.14453125 194.3203125 C-2820.59033527 189.62411556 -2810.41789693 180.97467706 -2800.125 171.25 C-2782.36321737 154.95135272 -2765.88439556 145.16859221 -2741.41259766 146.11962891 C-2725.92061918 147.00252288 -2711.33379469 157.95120396 -2698.25 165.5 C-2659.93236607 187.52901291 -2619.27082845 192.98977277 -2576.4375 181.5625 C-2568.32621919 179.30379027 -2560.30750662 176.76325961 -2552.3125 174.125 C-2551.32870361 173.80055908 -2550.34490723 173.47611816 -2549.33129883 173.1418457 C-2544.15533554 171.39495255 -2539.17534561 169.44383437 -2534.2097168 167.16992188 C-2531.01940974 165.76213677 -2527.74144177 164.6695478 -2524.4375 163.5625 C-2513.81860361 159.90958036 -2503.48489195 155.57233903 -2493.125 151.25 C-2492.17447754 150.85506348 -2491.22395508 150.46012695 -2490.24462891 150.05322266 C-2482.85842875 146.98260966 -2475.48941795 143.87244324 -2468.125 140.75 C-2461.65960734 138.00873494 -2455.19211382 135.27485606 -2448.703125 132.58984375 C-2444.70777104 130.92861073 -2440.7739378 129.19117813 -2436.875 127.3125 C-2431.51828457 124.81524121 -2426.0819925 122.66105808 -2420.53540039 120.63427734 C-2416.0637878 118.99536763 -2411.65030121 117.25141865 -2407.24731445 115.43652344 C-2369.81115771 100.07617516 -2328.22992887 85.36069674 -2288.5625 100.625 C-2279.26848388 104.84724743 -2274.42995084 109.59958569 -2269.08203125 118.34765625 C-2265.28305804 124.10012987 -2265.28305804 124.10012987 -2259.2578125 126.84375 C-2249.90208021 126.55214276 -2244.02854652 124.9232814 -2237.125 118.25 C-2235.32707338 116.04184703 -2233.78235568 113.71041354 -2232.25 111.3125 C-2231.60720093 110.33059692 -2231.60720093 110.33059692 -2230.95141602 109.32885742 C-2228.14904697 104.99754497 -2225.56562847 100.57153857 -2223.0625 96.0625 C-2211.989177 76.36176872 -2197.18905488 61.79061678 -2175.125 55.25 C-2161.14656556 52.71142518 -2147.58161277 53.87599372 -2134.125 58.25 C-2133.20154785 58.54600098 -2132.2780957 58.84200195 -2131.32666016 59.14697266 C-2115.10484594 64.44024313 -2099.55291029 70.98513062 -2083.96035767 77.87164307 C-2052.54017103 91.74830775 -2020.73738367 103.37210881 -1986.9375 109.875 C-1985.88771973 110.0814917 -1984.83793945 110.2879834 -1983.75634766 110.50073242 C-1965.96094159 113.80398286 -1948.18206356 114.57444687 -1930.125 114.4375 C-1928.12166414 114.42790652 -1926.11832753 114.4184687 -1924.11499023 114.40917969 C-1918.45136971 114.37697899 -1912.7882895 114.31797553 -1907.125 114.25 C-1906.42610657 114.2426886 -1905.72721313 114.2353772 -1905.00714111 114.22784424 C-1887.91838227 114.04477984 -1870.90024523 112.80575498 -1853.86328125 111.55078125 C-1852.69792217 111.46510454 -1851.5325631 111.37942783 -1850.33189011 111.29115486 C-1831.84907628 109.92175174 -1813.39424231 108.32468765 -1794.9453125 106.55859375 C-1793.72875158 106.4421841 -1792.51219067 106.32577446 -1791.25876427 106.20583725 C-1781.34156369 105.25453558 -1771.42555906 104.29099649 -1761.5100708 103.32202148 C-1672.60333464 94.63390623 -1672.60333464 94.63390623 -1628.25170898 94.85888672 C-1624.79949378 94.87637578 -1621.34795292 94.86550548 -1617.89575768 94.84855747 C-1596.08962018 94.75811127 -1574.26957311 95.53971096 -1553.19921875 101.65673828 C-1550.86993312 102.32295345 -1548.53015679 102.94109023 -1546.1875 103.55859375 C-1521.57318478 110.15914438 -1499.05345785 120.34875433 -1478.10839844 134.87890625 C-1474.32426844 137.49481887 -1470.50591323 140.05952199 -1466.6875 142.625 C-1465.95394287 143.12499512 -1465.22038574 143.62499023 -1464.46459961 144.14013672 C-1454.92509866 150.56051683 -1446.39316185 154.60669314 -1434.75 154.625 C-1433.93789062 154.64949219 -1433.12578125 154.67398438 -1432.2890625 154.69921875 C-1425.61234852 154.73131834 -1420.4909823 153.27682064 -1415.45800781 148.75097656 C-1413.88466648 147.11080999 -1412.40178088 145.42547824 -1410.9375 143.6875 C-1404.80037295 136.52618487 -1399.21881061 132.85080508 -1389.55371094 132.03222656 C-1370.80632745 131.22638876 -1356.85788821 134.77261539 -1340.125 143.25 C-1339.35833008 143.63542969 -1338.59166016 144.02085937 -1337.80175781 144.41796875 C-1326.39332933 150.18356752 -1315.30615161 156.41139263 -1304.29711914 162.90307617 C-1288.89906157 171.9551475 -1273.17788889 180.5029348 -1257.09863281 188.28759766 C-1254.99223158 189.31474185 -1252.89890411 190.36622517 -1250.8046875 191.41796875 C-1219.68803119 206.84939919 -1186.18291829 214.52687686 -1152.125 220.25 C-1151.12726562 220.41806152 -1150.12953125 220.58612305 -1149.1015625 220.75927734 C-1146.11004104 221.26027989 -1143.1175545 221.75521114 -1140.125 222.25 C-1138.75649902 222.48130615 -1138.75649902 222.48130615 -1137.36035156 222.71728516 C-1121.8154317 225.31542125 -1106.25329733 227.02087798 -1090.5625 228.4375 C-1089.1693457 228.56424103 -1089.1693457 228.56424103 -1087.74804688 228.69354248 C-1085.01862577 228.93978111 -1082.28876745 229.18022974 -1079.55859375 229.41796875 C-1078.77467758 229.4876033 -1077.99076141 229.55723785 -1077.18309021 229.62898254 C-1062.32711932 230.88826678 -1047.49885527 231.41578537 -1032.59375 231.453125 C-1030.84950743 231.4601107 -1029.10526509 231.46715159 -1027.36102295 231.47424316 C-1021.78234558 231.49359612 -1016.20370726 231.49842437 -1010.625 231.5 C-1009.67203537 231.50058914 -1008.71907074 231.50117828 -1007.73722839 231.50178528 C-974.11123607 231.51644344 -940.67055404 230.76568069 -907.125 228.25 C-906.14043823 228.17738953 -905.15587646 228.10477905 -904.14147949 228.02996826 C-818.66398991 221.66629159 -737.23457581 195.69688529 -645.55609703 167.39235115 C-590.94695742 150.52867256 -590.94695742 150.52867256 -571.6953125 145.49609375 C-568.09756964 144.544754 -564.55436981 143.45835808 -561.00390625 142.34375 C-553.71159309 140.07855269 -546.33882617 138.1831013 -538.9375 136.3125 C-536.16605215 135.60786351 -533.39530331 134.90052861 -530.625 134.19140625 C-529.95688797 134.02045441 -529.28877594 133.84950256 -528.60041809 133.67337036 C-523.85176826 132.45210938 -519.1425487 131.12707289 -514.4375 129.75 C-501.64031161 126.0662016 -488.52487796 123.47511363 -475.51676941 120.65272522 C-471.43468985 119.76446396 -467.36313309 118.84656109 -463.30078125 117.87109375 C-437.62274108 111.78390218 -410.98549822 108.16371844 -384.75 105.4375 C-383.59709473 105.31705322 -382.44418945 105.19660645 -381.25634766 105.07250977 C-374.36424512 104.43108627 -367.55124827 104.20045357 -360.63671875 104.1953125 C-338.05553124 104.06339444 -321.66581026 100.19131983 -301.70933533 89.64990234 C-294.0473974 85.61467038 -286.15048168 82.16050109 -278.21374512 78.70635986 C-274.54749239 77.10917951 -270.89027936 75.4917946 -267.234375 73.87109375 C-266.19714546 73.41215981 -266.19714546 73.41215981 -265.13896179 72.94395447 C-260.76825977 71.00279004 -256.43560795 68.9926034 -252.11328125 66.9453125 C-241.39830418 61.88998728 -230.45933216 57.33289297 -219.5625 52.6875 C-217.38857409 51.75869239 -215.21474537 50.82965724 -213.04101562 49.90039062 C-208.89387627 48.12782189 -204.74616269 46.35660901 -200.59790039 44.58666992 C-196.11244442 42.67248096 -191.62973467 40.75202797 -187.1484375 38.828125 C-169.64103089 31.32798118 -151.89993591 25.01282001 -133.80101013 19.10954285 C-129.83360705 17.81548616 -125.87964016 16.48683204 -121.9296875 15.140625 C-115.76819418 13.08540851 -109.53736882 11.37441718 -103.25 9.75 C-101.5031189 9.29826416 -101.5031189 9.29826416 -99.72094727 8.83740234 C-66.69491767 0.47347768 -33.8625614 0.01436361 0 0 Z " fill="#EFBECE" transform="translate(3201.125,698.75)"/>
<path d="M0 0 C2.85623456 2.07391392 2.85623456 2.07391392 6.11952161 3.96298663 C11.15042491 7.11243009 15.09743965 9.80883367 17.03222417 15.58833838 C17.64976101 19.9438945 17.53021936 24.29103314 17.4311418 28.67770468 C17.44076606 30.37668618 17.45609737 32.07564317 17.47659235 33.77452831 C17.5164158 38.44497824 17.47530159 43.11173977 17.42097476 47.78191397 C17.37633926 52.84969929 17.40719213 57.91711011 17.42855067 62.98496901 C17.45557112 71.87662025 17.43413625 80.7671398 17.38131673 89.65866005 C17.3020181 103.05152801 17.29850594 116.44371057 17.30936561 129.83677124 C17.32551737 152.28038947 17.28279453 174.72346328 17.20400233 197.16689955 C17.09769088 227.51353138 17.07266736 257.85953428 17.06137843 288.20648085 C16.99307805 361.17997017 16.81158418 434.15331797 16.64402003 507.12664687 C16.24183253 751.59477187 16.24183253 751.59477187 15.83152003 1001.00164687 C-517.77847997 1001.00164687 -1051.38847997 1001.00164687 -1601.16847997 1001.00164687 C-1594.42358918 993.13260762 -1587.61840507 985.3783633 -1580.57228856 977.78045546 C-1577.89521419 974.88887998 -1575.2457454 971.98318923 -1572.66847997 969.00164687 C-1569.5795069 965.428129 -1566.38005783 961.96453573 -1563.16847997 958.50164687 C-1559.3796384 954.41595956 -1555.6467605 950.29771318 -1552.00051122 946.08367812 C-1549.16983736 942.86672894 -1546.26080981 939.72194007 -1543.36013036 936.56829726 C-1538.92611957 931.74561784 -1534.54231919 926.8789496 -1530.16847997 922.00164687 C-1525.32326904 916.59871382 -1520.45639399 911.21800783 -1515.54347997 905.87664687 C-1512.56629716 902.6394747 -1509.60895141 899.39026958 -1506.73097997 896.06414687 C-1503.10635907 891.8805483 -1499.33462929 887.83730077 -1495.57106786 883.77923476 C-1492.89446959 880.88800559 -1490.24536817 877.98275283 -1487.66847997 875.00164687 C-1484.06765383 870.83598526 -1480.31457023 866.81564639 -1476.57082372 862.77899062 C-1473.89432068 859.8878307 -1471.24529273 856.98266555 -1468.66847997 854.00164687 C-1465.06765383 849.83598526 -1461.31457023 845.81564639 -1457.57082372 841.77899062 C-1454.89432068 838.8878307 -1452.24529273 835.98266555 -1449.66847997 833.00164687 C-1446.06765383 828.83598526 -1442.31457023 824.81564639 -1438.57082372 820.77899062 C-1435.89432068 817.8878307 -1433.24529273 814.98266555 -1430.66847997 812.00164687 C-1427.06765383 807.83598526 -1423.31457023 803.81564639 -1419.57082372 799.77899062 C-1416.89432068 796.8878307 -1414.24529273 793.98266555 -1411.66847997 791.00164687 C-1408.07315017 786.84234377 -1404.32802621 782.82579978 -1400.58620458 778.79876601 C-1397.22089444 775.16890585 -1393.93981483 771.48519182 -1390.76613622 767.68524062 C-1386.1977828 762.8711567 -1380.93475171 760.2207481 -1375.04347997 757.37664687 C-1373.22886427 756.48507173 -1371.41508006 755.59180256 -1369.60207372 754.69695937 C-1368.68796727 754.24610976 -1367.77386083 753.79526015 -1366.83205419 753.33074843 C-1362.89124606 751.36431769 -1358.99629784 749.31575894 -1355.10597997 747.25164687 C-1347.39808883 743.16840663 -1339.66462278 739.13686399 -1331.91847997 735.12664687 C-1320.59420601 729.26207849 -1309.28266114 723.37365637 -1297.97902684 717.46942031 C-1292.24826542 714.47660084 -1286.51582074 711.48700643 -1280.78371434 708.49676406 C-1276.04164398 706.02285006 -1271.29993859 703.54824266 -1266.55910497 701.07195937 C-1256.18792516 695.6559788 -1245.80798751 690.25739462 -1235.41847997 684.87664687 C-1227.07921398 680.55738869 -1218.75309159 676.21527479 -1210.44875341 671.82928359 C-1203.53988296 668.18548318 -1196.60491075 664.59264793 -1189.66847997 661.00164687 C-1181.1995209 656.61708748 -1172.74247974 652.21204535 -1164.30910497 647.75945937 C-1156.69742967 643.74436604 -1149.05888071 639.7813542 -1141.42140966 635.81561171 C-1135.20185073 632.58428973 -1128.99151869 629.33653794 -1122.79347997 626.06414687 C-1115.1046773 622.00542351 -1107.38937193 617.99895397 -1099.66847997 614.00164687 C-1091.15019563 609.59134147 -1082.64333103 605.16131212 -1074.15969091 600.68475234 C-1063.19830961 594.90258838 -1052.20154242 589.18796541 -1041.21144872 583.46063124 C-1030.58741328 577.9234684 -1019.9684604 572.37739091 -1009.37062841 566.79022109 C-1002.16331382 562.99299765 -994.93954671 559.22757318 -987.71535497 555.46258437 C-981.69259226 552.32237387 -975.67684037 549.16931987 -969.66847997 546.00164687 C-961.69623364 541.79859183 -953.7074404 537.62777175 -945.71535497 533.46258437 C-938.92278733 529.92100498 -932.14021948 526.36098119 -925.36501317 522.78631484 C-921.13324286 520.55552496 -916.89526457 518.33745186 -912.64894872 516.13445937 C-903.39257947 511.32999293 -894.17324344 506.48046255 -885.04347997 501.43914687 C-874.95953415 495.88195648 -864.72962044 490.62127299 -854.48097997 485.37664687 C-853.6665241 484.9598265 -852.85206822 484.54300612 -852.01293187 484.11355483 C-848.82829785 482.48397196 -845.64358012 480.85455285 -842.45871739 479.22541701 C-831.87899709 473.81064841 -821.3725883 468.2659448 -810.90676122 462.63445937 C-808.57744908 461.38164076 -806.24803517 460.12901326 -803.91847997 458.87664687 C-803.03732015 458.40265959 -803.03732015 458.40265959 -802.13835912 457.91909682 C-791.91734071 452.42533208 -781.62123315 447.08699947 -771.29720311 441.78988539 C-762.36863568 437.20594301 -753.51816582 432.50416733 -744.73342137 427.64935195 C-736.46092819 423.10473767 -728.06903532 418.8029512 -719.66847997 414.50164687 C-709.48525018 409.2874839 -699.36678847 403.99192234 -689.35207372 398.45867812 C-681.86030079 394.3365182 -674.2733433 390.40931574 -666.66847997 386.50164687 C-657.17812726 381.6248352 -647.75948212 376.64143038 -638.41457372 371.48992812 C-631.22588858 367.54195713 -623.95909021 363.75755543 -616.66847997 360.00164687 C-607.45458412 355.25444514 -598.31575959 350.39654745 -589.23488622 345.40008437 C-582.75768385 341.8447149 -576.22868115 338.40116927 -569.66847997 335.00164687 C-560.30469432 330.14579544 -551.02705985 325.14928198 -541.78176122 320.07195937 C-537.89552078 317.93922463 -533.99622539 315.83310382 -530.08644872 313.74383437 C-487.45683178 290.93520211 -448.4987256 262.58523251 -413.08254247 229.66961562 C-410.85512017 227.63030003 -408.60420371 225.64743843 -406.31691747 223.67742812 C-402.06806841 219.97463001 -398.11330288 216.02351711 -394.16847997 212.00164687 C-389.56753162 207.31083625 -384.88771487 202.83756266 -379.91017919 198.54754531 C-377.83719464 196.70760444 -376.02470071 194.73829186 -374.23097997 192.62664687 C-369.20252505 186.90491457 -363.80317717 181.58027508 -358.37184911 176.24236953 C-354.37958365 172.29751595 -350.58475774 168.26441995 -346.92385106 164.01092421 C-343.81639087 160.45398439 -340.54550996 157.05092836 -337.29347997 153.62664687 C-332.23263026 148.27419224 -327.21361568 142.89647414 -322.31301122 137.39617812 C-319.7484863 134.53269219 -317.14691527 131.70471292 -314.54347997 128.87664687 C-311.56614471 125.63961899 -308.60894756 122.39026513 -305.73097997 119.06414687 C-302.10501013 114.87899132 -298.33204148 110.83404598 -294.56667333 106.77484023 C-291.93089004 103.92816132 -289.32389633 101.06809533 -286.79347997 98.12664687 C-281.85132299 92.41863506 -276.6323711 86.95795502 -271.46340184 81.45623671 C-269.67701746 79.54556558 -267.89827925 77.6286735 -266.12355809 75.70721328 C-258.1651416 67.10770871 -250.03305723 58.70856173 -241.73439794 50.43719374 C-239.76982796 48.47806031 -237.81076549 46.51353043 -235.85207372 44.54852187 C-229.79286101 38.48586969 -223.72393263 32.53203745 -217.16847997 27.00164687 C-216.04588467 26.00479524 -214.92607374 25.00479897 -213.80910497 24.00164687 C-149.94680727 -32.77319536 -73.29765576 -53.8784224 0 0 Z " fill="#DB7093" transform="translate(3359.1684799678624,1248.9983531311154)"/>
<path d="M0 0 C12.25587929 9.15070959 23.50358544 19.95216455 33.4296875 31.55859375 C34.35501319 32.60702264 35.28198591 33.6540012 36.2109375 34.69921875 C44.86730971 44.55158909 52.67773157 54.98774476 60.4296875 65.55859375 C61.03055176 66.37537598 61.63141602 67.1921582 62.25048828 68.03369141 C63.98252764 70.39210169 65.70784348 72.75523206 67.4296875 75.12109375 C67.93298584 75.80977539 68.43628418 76.49845703 68.95483398 77.20800781 C69.92055144 78.54508128 70.86801414 79.89557689 71.7945013 81.26012707 C73.37970445 83.5745793 73.37970445 83.5745793 75.22596836 85.58652973 C82.7046932 95.01142009 81.36131295 105.87980667 81.22436523 117.2878418 C81.22238871 119.5948531 81.22350296 121.90186881 81.22746277 124.20887756 C81.22946535 130.44808597 81.18840515 136.68634604 81.13944507 142.92533469 C81.0955884 149.45422754 81.09156623 155.98314383 81.08326721 162.51216125 C81.06517107 173.46294527 81.0203279 184.41339837 80.95776367 195.36401367 C80.89341694 206.63841024 80.84391406 217.9127125 80.81420898 229.18725586 C80.81236992 229.88332287 80.81053086 230.57938987 80.80863606 231.29654982 C80.79950017 234.78884492 80.79065436 238.28114069 80.78195274 241.7734369 C80.7094977 270.7020514 80.58578045 299.63031425 80.4296875 328.55859375 C79.00028513 327.61057854 77.57153917 326.66157357 76.14306641 325.7121582 C75.34736237 325.1837886 74.55165833 324.65541901 73.73184204 324.11103821 C70.69673939 322.06433448 67.75647552 319.9114565 64.8046875 317.74609375 C32.82154326 294.71962597 -6.2159799 279.81172719 -46.0078125 285.68359375 C-85.48920701 292.37129992 -117.91207827 314.82142002 -147.5703125 340.55859375 C-148.27027344 341.15800781 -148.97023438 341.75742188 -149.69140625 342.375 C-160.90917037 352.0535283 -171.52891236 362.35276723 -181.98388672 372.84179688 C-183.9607726 374.82409619 -185.94302289 376.80092008 -187.92578125 378.77734375 C-196.32193127 387.14444025 -196.32193127 387.14444025 -204.21142578 395.98535156 C-205.75029157 397.76696333 -207.38991866 399.41057134 -209.0703125 401.05859375 C-212.0157198 403.95858728 -214.72494959 406.99485806 -217.421875 410.125 C-220.24651225 413.32454365 -223.15777563 416.43916435 -226.0703125 419.55859375 C-230.0205581 423.79230734 -233.91731141 428.05199647 -237.69921875 432.4375 C-240.2742415 435.35657589 -242.92334425 438.20481217 -245.5703125 441.05859375 C-248.78192746 444.52144582 -251.98134117 447.98507789 -255.0703125 451.55859375 C-259.09449754 456.20789491 -263.29000021 460.69718893 -267.46875 465.20703125 C-270.30742391 468.27068984 -273.12796951 471.35030688 -275.9453125 474.43359375 C-277.81823066 476.47717818 -279.69375701 478.51834925 -281.5703125 480.55859375 C-282.36260254 481.42073486 -282.36260254 481.42073486 -283.17089844 482.30029297 C-290.42439675 490.17836279 -297.817104 497.87526735 -305.4362793 505.40087891 C-309.1586807 509.09224799 -312.71845142 512.83233412 -315.98046875 516.9453125 C-316.50511719 517.47769531 -317.02976562 518.01007812 -317.5703125 518.55859375 C-318.31361816 519.31954346 -319.05692383 520.08049316 -319.82275391 520.86450195 C-322.26339193 522.44140186 -323.4241682 522.57369622 -326.35527039 522.27079773 C-329.98834517 521.40401697 -333.55163571 520.37009206 -337.12109375 519.27734375 C-338.50249707 518.87585161 -339.88462496 518.47684537 -341.26741028 518.08013916 C-344.24608612 517.22050785 -347.21944584 516.34500402 -350.1897583 515.45690918 C-354.94210436 514.0367271 -359.7048032 512.65393109 -364.47021484 511.27832031 C-366.10744231 510.80530752 -367.74464919 510.3322235 -369.38183594 509.85906982 C-370.20066254 509.6224337 -371.01948914 509.38579758 -371.86312866 509.14199066 C-374.38480162 508.41173664 -376.90543173 507.67798396 -379.42578125 506.94317627 C-396.0404277 502.10224962 -412.71430899 497.48758694 -429.40926743 492.93244934 C-431.706588 492.3055167 -434.00366404 491.67769487 -436.3006897 491.04968262 C-525.16522245 466.7621749 -613.94204307 444.42981322 -777.89062119 417.54753685 C-923.62203585 394.25668644 -923.62203585 394.25668644 -970.5703125 379.55859375 C-971.89313232 379.14504639 -971.89313232 379.14504639 -973.24267578 378.72314453 C-985.51524637 374.78640305 -997.14695426 369.60635951 -1008.7578125 364.05859375 C-1009.41557678 363.74752686 -1010.07334106 363.43645996 -1010.7510376 363.1159668 C-1035.55603723 351.32219054 -1035.55603723 351.32219054 -1039.37109375 341.49609375 C-1039.71173561 340.20633524 -1040.0451011 338.91463257 -1040.37109375 337.62109375 C-1043.79937935 331.72488921 -1051.01243259 329.27465642 -1057.1328125 327.12109375 C-1057.96087402 326.825979 -1058.78893555 326.53086426 -1059.64208984 326.22680664 C-1116.86232672 306.28155862 -1183.68678788 298.87496379 -1242.8203125 312.55859375 C-1276.05428053 320.19371778 -1303.89567285 323.19318427 -1335.0847168 306.81723022 C-1356.43221331 295.65267277 -1377.21185269 287.63076805 -1401.5703125 286.55859375 C-1402.49714844 286.51734375 -1403.42398437 286.47609375 -1404.37890625 286.43359375 C-1425.01364043 285.98562123 -1445.48425813 290.99179588 -1465.1953125 296.5546875 C-1465.88355669 296.74825836 -1466.57180088 296.94182922 -1467.28090096 297.14126587 C-1484.18273448 301.90841058 -1500.87588676 307.30227803 -1517.57452393 312.73040771 C-1533.71951428 317.9778754 -1549.87827657 323.05552783 -1566.2578125 327.52734375 C-1566.93144773 327.71213791 -1567.60508297 327.89693207 -1568.29913139 328.08732605 C-1599.0280594 336.48250375 -1632.0514577 342.28557291 -1663.5703125 334.55859375 C-1664.40755859 334.35991699 -1665.24480469 334.16124023 -1666.10742188 333.95654297 C-1686.74751582 328.96839572 -1705.68971226 321.04487525 -1724.8828125 312.12109375 C-1764.51206192 293.71058877 -1800.62619229 286.62013668 -1844.37850952 285.6499939 C-1851.279386 285.49658282 -1858.17877868 285.28825289 -1865.078125 285.078125 C-1865.75699705 285.05759378 -1866.4358691 285.03706257 -1867.13531303 285.01590919 C-1930.86619658 283.06419422 -1993.73019546 270.73404378 -2056.38769531 259.71191406 C-2074.97353401 256.44367181 -2093.55644904 253.28551516 -2112.2578125 250.74609375 C-2112.97934509 250.64690643 -2113.70087769 250.54771912 -2114.4442749 250.44552612 C-2119.4799154 249.7583606 -2124.52048111 249.13220256 -2129.5703125 248.55859375 C-2130.7569046 248.42374069 -2130.7569046 248.42374069 -2131.96746826 248.28616333 C-2150.04184167 246.29818139 -2168.1638732 245.94329646 -2186.328125 245.52954102 C-2236.37912362 244.35111425 -2277.5768507 234.04980772 -2322.83129883 213.36083984 C-2361.03627562 195.89978943 -2399.50555568 178.84418109 -2441.5703125 173.55859375 C-2442.2611795 173.47026276 -2442.95204651 173.38193176 -2443.66384888 173.29092407 C-2450.73246268 172.47573778 -2457.71254503 172.47881223 -2464.8203125 172.56640625 C-2467.39452723 172.58393439 -2469.96874624 172.60084152 -2472.54296875 172.6171875 C-2476.54684024 172.64672776 -2480.55048316 172.68336287 -2484.55419922 172.72998047 C-2514.02365857 173.05422103 -2514.02365857 173.05422103 -2528.5703125 169.55859375 C-2529.43209106 169.35444855 -2530.29386963 169.15030334 -2531.1817627 168.93997192 C-2544.75351209 165.66796154 -2558.09980678 161.67151247 -2571.42449951 157.52139282 C-2644.26884558 134.57973967 -2644.26884558 134.57973967 -2717.0703125 149.68359375 C-2730.62871483 157.27497305 -2741.88777009 167.62685976 -2751.1953125 179.99609375 C-2751.741875 180.70830078 -2752.2884375 181.42050781 -2752.8515625 182.15429688 C-2753.65980469 183.21874023 -2753.65980469 183.21874023 -2754.484375 184.3046875 C-2755.01579102 185.00319824 -2755.54720703 185.70170898 -2756.09472656 186.42138672 C-2757.61989249 188.51915633 -2757.61989249 188.51915633 -2758.69433594 190.84033203 C-2759.8155282 193.10034536 -2760.76287445 194.79206072 -2762.5703125 196.55859375 C-2765.23048986 197.21853177 -2767.67750977 197.27728967 -2770.41650391 197.33544922 C-2776.46571504 197.76345502 -2782.0732069 200.12269753 -2787.7578125 202.12109375 C-2789.08568318 202.57795558 -2790.41397854 203.03358478 -2791.74267578 203.48803711 C-2794.42084215 204.40505499 -2797.09699715 205.32762536 -2799.77197266 206.25390625 C-2804.17319706 207.77262984 -2808.5972185 209.21904712 -2813.02294922 210.66455078 C-2823.17348504 213.98700687 -2833.18586985 217.60179528 -2843.16723633 221.40112305 C-2849.87567994 223.94909252 -2856.61118366 226.31364112 -2863.44921875 228.48828125 C-2866.65437654 229.54341713 -2866.65437654 229.54341713 -2870.00390625 231.03515625 C-2874.8546126 233.10719949 -2879.83463167 234.66031646 -2884.8515625 236.27734375 C-2888.51562002 237.53975012 -2892.01263386 239.0253848 -2895.5703125 240.55859375 C-2898.10701586 241.47537673 -2900.64444101 242.3712992 -2903.1953125 243.24609375 C-2909.86785666 245.56517354 -2916.47737701 248.02247871 -2923.0703125 250.55859375 C-2930.0244176 253.22976939 -2936.99852763 255.809665 -2944.03149414 258.26513672 C-2950.03860256 260.36362181 -2956.02600772 262.51405327 -2962.0078125 264.68359375 C-2963.35734009 265.17085937 -2963.35734009 265.17085937 -2964.73413086 265.66796875 C-2969.92025646 267.55226584 -2975.05334599 269.53723127 -2980.16967773 271.60302734 C-2983.88024338 273.08000832 -2987.62968764 274.44426616 -2991.3828125 275.80859375 C-2998.31671435 278.34739822 -3005.23286896 280.92886389 -3012.1328125 283.55859375 C-3013.01291992 283.8939917 -3013.89302734 284.22938965 -3014.79980469 284.57495117 C-3018.93895202 286.15673496 -3023.07256806 287.75091543 -3027.1953125 289.375 C-3034.60382303 292.29338175 -3042.026935 295.09424625 -3049.55859375 297.6796875 C-3061.69838565 301.89099831 -3073.69290951 306.4734264 -3085.6953125 311.05859375 C-3087.86058923 311.88304326 -3090.02595354 312.7072628 -3092.19140625 313.53125 C-3101.62769538 317.12527776 -3111.05457037 320.74022803 -3120.45703125 324.421875 C-3126.6757496 326.85313414 -3132.92516613 329.12656047 -3139.2578125 331.24609375 C-3148.78577555 334.49966533 -3158.18743371 338.03765485 -3167.5703125 341.68359375 C-3168.20858978 341.93144623 -3168.84686707 342.17929871 -3169.50448608 342.43466187 C-3175.87027969 344.91001448 -3182.22343351 347.41487216 -3188.55952454 349.96524048 C-3194.12887768 352.20623188 -3199.69701929 354.3778062 -3205.3828125 356.30859375 C-3213.94911978 359.26758574 -3222.38948501 362.53747425 -3230.83959961 365.81103516 C-3237.35328509 368.33120827 -3243.88132867 370.7977029 -3250.4453125 373.18359375 C-3257.02132489 375.57487098 -3263.5222051 378.11982609 -3270.0078125 380.74609375 C-3289.33826526 388.55859375 -3289.33826526 388.55859375 -3294.5703125 388.55859375 C-3294.5703125 304.40859375 -3294.5703125 220.25859375 -3294.5703125 133.55859375 C-3284.3403125 130.25859375 -3274.1103125 126.95859375 -3263.5703125 123.55859375 C-3255.43036217 120.76192116 -3247.30387899 117.94275123 -3239.1953125 115.05859375 C-3237.01742694 114.28748358 -3234.8395295 113.51640698 -3232.66162109 112.74536133 C-3216.43056617 106.98642019 -3200.26014503 101.06748099 -3184.10299683 95.10491943 C-3164.9938198 88.05420886 -3145.83244838 81.1801696 -3126.5703125 74.55859375 C-3125.82988708 74.30333923 -3125.08946167 74.04808472 -3124.32659912 73.78509521 C-3095.04901611 63.6957768 -3065.44134573 53.86265619 -3034.97558594 48.03027344 C-3032.73862223 47.59159968 -3030.51973762 47.10214309 -3028.296875 46.59765625 C-2995.35997591 39.57869748 -2962.83290453 45.49114093 -2932.73144531 59.33691406 C-2918.89155003 65.64379472 -2902.27179717 63.15628943 -2888.4453125 58.05859375 C-2883.4478272 56.16284841 -2878.51405828 54.12477675 -2873.58984375 52.046875 C-2872.02097412 51.38558594 -2872.02097412 51.38558594 -2870.42041016 50.7109375 C-2868.36350833 49.83952502 -2866.30960413 48.96099093 -2864.25927734 48.07421875 C-2816.56158181 27.76987863 -2763.70429236 51.19217511 -2717.57287598 66.08802795 C-2713.82021581 67.29572561 -2710.06273125 68.48804624 -2706.30523682 69.68060303 C-2703.59312793 70.55126933 -2700.89117199 71.44923839 -2698.18896484 72.35009766 C-2680.21072213 78.2309314 -2665.69810507 76.2274609 -2647.4453125 72.55859375 C-2645.34525002 72.1459721 -2643.24506924 71.73395211 -2641.14477539 71.32250977 C-2626.54259108 68.44175241 -2612.00164015 65.31517301 -2597.48887634 62.01626587 C-2588.31636035 59.93171756 -2579.12163251 57.9732018 -2569.91226196 56.0585022 C-2557.2745752 53.43100411 -2544.66293278 50.7171038 -2532.08273315 47.82595825 C-2529.84630179 47.31453691 -2527.6081434 46.81142769 -2525.36938477 46.31030273 C-2516.75097892 44.37164166 -2516.75097892 44.37164166 -2508.265625 41.921875 C-2495.77527523 38.03311289 -2486.07016324 41.53515332 -2473.90185547 45.51074219 C-2468.41185162 47.23748237 -2462.84473947 48.62176091 -2457.2578125 49.99609375 C-2456.10539062 50.2806543 -2454.95296875 50.56521484 -2453.765625 50.85839844 C-2450.03662175 51.77040493 -2446.30435691 52.66745628 -2442.5703125 53.55859375 C-2441.89635437 53.71992798 -2441.22239624 53.88126221 -2440.52801514 54.04748535 C-2422.58322347 58.33357346 -2404.59577112 62.09660037 -2386.3828125 65.05859375 C-2385.60778381 65.18855743 -2384.83275513 65.31852112 -2384.03424072 65.4524231 C-2359.72870683 69.4882143 -2338.29429098 67.17463545 -2314.9296875 59.53125 C-2304.41083056 56.18456192 -2294.6357548 54.06361614 -2283.5703125 54.24609375 C-2282.59320312 54.24287109 -2281.61609375 54.23964844 -2280.609375 54.23632812 C-2267.38834221 54.33175553 -2254.57421461 57.28920042 -2241.6953125 59.99609375 C-2240.24355718 60.29915214 -2238.79173441 60.60188758 -2237.33984375 60.90429688 C-2236.62487732 61.0532692 -2235.90991089 61.20224152 -2235.17327881 61.35572815 C-2232.32517962 61.94835369 -2229.47659957 62.53865497 -2226.62805176 63.12911987 C-2224.634543 63.5451881 -2222.64292637 63.96948864 -2220.65136719 64.39477539 C-2212.31121473 66.13689025 -2204.05192455 67.33346191 -2195.5703125 68.12109375 C-2194.29647705 68.24331299 -2193.0226416 68.36553223 -2191.71020508 68.49145508 C-2140.85653024 73.27755918 -2095.42777648 72.75423458 -2048.5703125 50.55859375 C-1971.84959352 14.2382726 -1971.84959352 14.2382726 -1945.69921875 23.23828125 C-1929.95140666 29.88342543 -1918.87278024 43.10888617 -1907.9453125 55.74609375 C-1906.82324145 57.01951392 -1905.69822363 58.29034344 -1904.5703125 59.55859375 C-1903.96960937 60.24953125 -1903.36890625 60.94046875 -1902.75 61.65234375 C-1896.999219 67.89205755 -1890.50630046 71.86582351 -1882.0078125 73.05859375 C-1870.40108703 71.37034277 -1863.11261202 66.14133199 -1854.18359375 58.765625 C-1842.10076955 48.85503152 -1831.15202029 43.55871342 -1815.0234375 44.74609375 C-1788.55146484 49.01003565 -1763.95671246 66.84673856 -1741.56005859 80.70849609 C-1735.60343873 84.39453768 -1729.62041026 88.02757584 -1723.5703125 91.55859375 C-1722.97041504 91.91244141 -1722.37051758 92.26628906 -1721.75244141 92.63085938 C-1715.21189341 96.45367642 -1709.12706495 99.63423475 -1701.6953125 101.37109375 C-1686.02376624 105.13096834 -1671.48338117 113.16512922 -1656.97460938 120.02905273 C-1634.3850263 130.71196863 -1611.72075777 140.73548276 -1588.0078125 148.68359375 C-1586.99160324 149.02650452 -1586.99160324 149.02650452 -1585.9548645 149.37634277 C-1553.94117098 160.1067526 -1526.00023774 159.52856728 -1495.5168457 144.7199707 C-1492.17533373 143.04816696 -1488.87197367 141.30744361 -1485.5703125 139.55859375 C-1484.05372308 138.76497939 -1482.5367835 137.9720339 -1481.01953125 137.1796875 C-1474.55897641 133.79628632 -1468.10631246 130.40116685 -1461.703125 126.91015625 C-1439.45666774 114.84660418 -1417.19676599 106.39655486 -1391.6875 113.43359375 C-1382.44319293 116.76988502 -1374.19749413 122.03049575 -1366.1328125 127.55859375 C-1354.20658063 135.72833558 -1341.13781002 141.64361387 -1327.5703125 146.55859375 C-1326.9191748 146.79787598 -1326.26803711 147.0371582 -1325.59716797 147.28369141 C-1243.32582322 176.93619099 -1146.22017466 176.25206472 -855.5703125 193.55859375 C-854.26521729 193.60866577 -852.96012207 193.65873779 -851.61547852 193.71032715 C-753.35217067 198.15969297 -753.35217067 198.15969297 -655.5703125 190.55859375 C-654.10440674 190.34614014 -654.10440674 190.34614014 -652.60888672 190.12939453 C-638.58015771 188.04910619 -625.06905634 184.90473743 -611.5703125 180.55859375 C-610.89548828 180.34541504 -610.22066406 180.13223633 -609.52539062 179.91259766 C-598.75630197 176.43772028 -588.82054627 171.33592929 -578.79223633 166.14038086 C-566.00120028 159.55805801 -553.89929249 155.16437322 -539.5703125 159.55859375 C-531.24783385 162.57398456 -526.21239932 168.30664466 -521.0078125 175.24609375 C-516.74666569 180.83884894 -512.32238423 183.64322656 -505.5703125 185.55859375 C-484.64092964 187.76290791 -466.54349672 177.96147716 -448.2734375 168.98828125 C-424.01397622 157.07502488 -399.86834988 148.17289884 -373.88671875 140.7890625 C-369.86961327 139.64694428 -365.86040273 138.47939023 -361.8515625 137.30859375 C-332.48960391 128.80284931 -302.76796745 121.33430998 -272.7578125 115.49609375 C-272.0419397 115.35588806 -271.32606689 115.21568237 -270.58850098 115.07122803 C-246.53810016 110.40086032 -224.05212014 108.31472454 -200.3828125 115.74609375 C-190.85219321 118.58011258 -180.9426003 119.25137951 -171.75 114.94140625 C-162.70049714 109.20032379 -159.07797898 99.08586926 -155.03564453 89.65673828 C-147.1136755 71.24640787 -137.35240963 58.23267578 -118.63671875 49.7421875 C-105.21690014 43.61388456 -96.5545886 34.75444983 -87.58203125 23.1484375 C-63.53926653 -7.80370426 -35.82419093 -25.35296594 0 0 Z " fill="#EAACC1" transform="translate(3294.5703125,932.44140625)"/>
<path d="M0 0 C0.94955566 0.18884766 1.89911133 0.37769531 2.87744141 0.57226562 C25.0674766 5.11273457 46.59124118 11.84609328 68.20996094 18.52294922 C90.90301615 25.52844965 112.9480715 32.2884476 136.87890625 31.9921875 C139.4368448 31.97464375 141.9947878 31.95773818 144.55273438 31.94140625 C148.53427455 31.9107472 152.51544333 31.87555481 156.49682617 31.82861328 C211.53323503 31.21529826 257.89714965 48.43127648 307.48242188 71.04345703 C336.25388003 84.23698833 336.25388003 84.23698833 366 95 C366.83547363 95.26248535 367.67094727 95.5249707 368.53173828 95.79541016 C376.01571337 97.99263028 383.62309067 99.18529728 391.32470703 100.30761719 C393.49760931 100.62465119 395.66874228 100.95213198 397.83984375 101.28125 C410.10537768 103.11130869 422.1779055 104.12943431 434.58203125 104.4296875 C436.55512802 104.48456359 438.52822448 104.53945471 440.50129986 104.59509468 C445.28460757 104.72934864 450.06803057 104.85770209 454.85180664 104.97412109 C479.9541005 105.59195458 504.77851064 107.51972503 529.625 111.3125 C530.92598129 111.51068832 532.22696259 111.70887665 533.56736755 111.91307068 C543.68198719 113.46404765 553.77945198 115.10340012 563.87109375 116.796875 C565.43439714 117.05836596 566.99771643 117.31976196 568.56105042 117.58106995 C573.37427459 118.38594437 578.18716417 119.19280715 583 120 C584.50585782 120.25248122 586.01171716 120.50495333 587.51757812 120.75741577 C589.71944888 121.1265803 591.9213187 121.49575045 594.12318516 121.86494064 C596.3099839 122.23159961 598.49678719 122.59823143 600.68359375 122.96484375 C601.40672194 123.08607479 602.12985012 123.20730583 602.87489128 123.33221054 C665.14108073 133.7692645 726.30232776 143.58751087 789.56420898 145.02905273 C803.82146818 145.36438445 817.98402219 145.90097339 832.171875 147.40625 C833.83368553 147.5822599 833.83368553 147.5822599 835.52906799 147.76182556 C864.03643003 151.03695394 889.01915831 162.185088 914.77218628 174.11508179 C943.21859251 187.26269653 972.20354973 197.42127682 1003.875 197.375 C1004.54463776 197.37412384 1005.21427551 197.37324768 1005.90420532 197.37234497 C1018.90731826 197.31682947 1031.30560131 195.83081385 1044 193 C1045.02963867 192.7745752 1046.05927734 192.54915039 1047.12011719 192.31689453 C1072.54455185 186.63056106 1097.33979761 178.4041915 1122.1171875 170.4296875 C1195.36883062 146.86566358 1195.36883062 146.86566358 1221 146 C1221.90878906 145.96003906 1222.81757812 145.92007812 1223.75390625 145.87890625 C1247.00544196 145.34111563 1269.45341861 151.08495066 1290.1171875 161.546875 C1291.08097824 162.03434456 1291.08097824 162.03434456 1292.0642395 162.53166199 C1295.30154868 164.17508616 1298.52702452 165.8376839 1301.73876953 167.53051758 C1321.13514349 177.62820442 1340.53718237 181.12029127 1362.234375 177.76953125 C1363.09538818 177.63829361 1363.95640137 177.50705597 1364.84350586 177.37184143 C1375.54527255 175.67835923 1386.08876247 173.25030941 1396.64550781 170.83129883 C1452.19100903 158.16581651 1540.16128005 162.75690829 1590.35546875 192.390625 C1594.6078227 195.5820824 1595.6640876 198.64706496 1597.05151367 203.65283203 C1600.36433256 211.85088629 1611.07628897 216.08018873 1618.4375 219.8125 C1619.02547363 220.11303284 1619.61344727 220.41356567 1620.21923828 220.72320557 C1695.66610128 259.1845719 1787.1696662 266.07861053 1869.7828064 279.15722656 C1939.8809959 290.25563481 2009.703591 301.91206546 2078.60327148 319.15100098 C2082.12855508 320.03213184 2085.6550013 320.9084918 2089.18164062 321.78417969 C2153.17779308 337.69623042 2216.68441427 355.3738439 2280.15625 373.24609375 C2280.91780584 373.46050488 2281.67936169 373.674916 2282.46399498 373.89582443 C2291.98200649 376.57637255 2301.4942826 379.27615422 2311 382 C2309.43388545 385.29815812 2307.7486877 387.49720472 2305.1484375 390.08203125 C2303.99408203 391.23348633 2303.99408203 391.23348633 2302.81640625 392.40820312 C2302.01074219 393.20162109 2301.20507812 393.99503906 2300.375 394.8125 C2299.59253906 395.59431641 2298.81007813 396.37613281 2298.00390625 397.18164062 C2293.71163022 401.44188475 2289.33349644 405.54575798 2284.75097656 409.49194336 C2282.52362686 411.410284 2280.3569993 413.39167489 2278.1875 415.375 C2273.9455915 419.19914478 2269.59448903 422.84889455 2265.15234375 426.4375 C2262.81140119 428.33020913 2260.49750788 430.25250175 2258.19140625 432.1875 C2217.84023291 465.95707626 2172.15814519 490.12934479 2125.92138672 514.66430664 C2117.31115703 519.23426011 2108.71378465 523.82733446 2100.125 528.4375 C2085.56314259 536.2507485 2070.95639811 543.97838224 2056.34667969 551.70166016 C2049.93509602 555.09136878 2043.52587157 558.48553291 2037.1164856 561.87939453 C2035.00150023 562.99920568 2032.88639039 564.11878139 2030.77124023 565.23828125 C2024.31101467 568.6576529 2017.85138919 572.07814034 2011.39419556 575.50323486 C2007.74229194 577.44027589 2004.08997908 579.37654432 2000.4375 581.3125 C1999.72573608 581.68981262 1999.01397217 582.06712524 1998.28063965 582.45587158 C1988.11071756 587.84522739 1977.91032771 593.17126413 1967.68725586 598.45922852 C1961.24238011 601.80373043 1954.85837976 605.24425396 1948.5 608.75 C1938.54204278 614.23888514 1928.44275903 619.43331628 1918.32287598 624.61468506 C1909.90322621 628.92778365 1901.52553757 633.28930119 1893.25 637.875 C1883.37966578 643.33846978 1873.3544793 648.48660988 1863.3125 653.625 C1862.49713776 654.04227356 1861.68177551 654.45954712 1860.84170532 654.88946533 C1857.65803499 656.51855972 1854.47428989 658.14750784 1851.29039001 659.77615356 C1840.02156896 665.54359926 1828.84192813 671.47010246 1817.68847656 677.45715332 C1814.67815678 679.07304091 1811.6670597 680.68743568 1808.65380859 682.29785156 C1808.06253174 682.61387329 1807.47125488 682.92989502 1806.86206055 683.25549316 C1805.67055453 683.89224843 1804.47898555 684.52888588 1803.28735352 685.16540527 C1799.27114857 687.31302441 1795.26893583 689.48535722 1791.26953125 691.6640625 C1789.20081687 692.77659231 1787.13182109 693.88859908 1785.0625 695 C1783.64275879 695.78383057 1783.64275879 695.78383057 1782.19433594 696.58349609 C1781.31680664 697.05094238 1780.43927734 697.51838867 1779.53515625 698 C1778.775979 698.4125 1778.01680176 698.825 1777.23461914 699.25 C1772.29138017 700.90908774 1767.90792198 698.20401824 1763.41796875 696.1484375 C1762.78020508 695.85797043 1762.14244141 695.56750336 1761.48535156 695.26823425 C1759.38361212 694.30909283 1757.28556038 693.3421595 1755.1875 692.375 C1753.70172568 691.6949101 1752.21580192 691.01514657 1750.72973633 690.33569336 C1740.19080127 685.50798966 1729.70047333 680.57892651 1719.21679688 675.63272095 C1707.10630465 669.92485513 1694.89385024 664.46494564 1682.64672852 659.05761719 C1672.83991044 654.72471331 1663.07490829 650.30935355 1653.33474731 645.82870483 C1637.75154775 638.66240006 1622.08281909 631.72756791 1606.30975342 624.98822021 C1603.76685384 623.9002492 1601.22537698 622.80899889 1598.68408203 621.71728516 C1574.8996674 611.50244887 1551.0697485 601.45539579 1526.98583984 591.96728516 C1521.21136052 589.69123762 1515.44379087 587.39785092 1509.67578125 585.10546875 C1480.82089838 573.64230891 1451.93642617 562.25580733 1423 551 C1422.20335938 550.6898999 1421.40671875 550.3797998 1420.5859375 550.06030273 C1329.43064299 514.5865928 1237.5344356 479.88373612 1000.97607422 420.66748047 C998.32765838 420.22487384 995.68102933 419.77336369 993.03564453 419.31298828 C943.15568236 410.64816162 897.6875603 409.5736048 848.68005371 422.68974304 C763.39658525 445.49195638 675.40417182 426.85365063 498 360 C497.32940552 359.71638611 496.65881104 359.43277222 495.96789551 359.14056396 C487.29275423 355.47098522 478.64029053 351.75081425 470 348 C468.79811035 347.47937988 467.5962207 346.95875977 466.35791016 346.42236328 C431.06773462 331.1278078 396.05870929 315.21032917 361.17596436 299.01049805 C359.11638997 298.05405044 357.05651991 297.09824255 354.99658203 296.14257812 C325.66785071 282.53108865 296.44585804 268.69449483 267.37013245 254.55059814 C266.7130278 254.23097107 266.05592316 253.91134399 265.37890625 253.58203125 C264.41264565 253.11201691 264.41264565 253.11201691 263.42686462 252.63250732 C257.96415469 249.97764343 252.48452946 247.35939316 247 244.75 C223.17889739 233.39630564 199.43823613 221.84625952 175.89379883 209.9284668 C170.09808889 207.00555007 164.26964282 204.16678125 158.40707016 201.38076687 C145.37661457 195.1854618 132.44863308 188.79801148 119.546875 182.33984375 C117.38329766 181.25839346 115.21966106 180.1770617 113.05596924 179.09584045 C108.5646587 176.85091438 104.07405826 174.60457617 99.58398438 172.35717773 C93.88535327 169.50500787 88.18492607 166.65644902 82.4839592 163.80895138 C78.03032868 161.58395897 73.57766837 159.35703046 69.12528229 157.12954903 C67.02563912 156.07939865 64.9257093 155.02982114 62.82546234 153.98087883 C52.14417586 148.64492997 41.50598736 143.24702726 30.9559288 137.65581417 C23.03772954 133.46919471 15.03431465 129.45965406 7.01541138 125.47012329 C4.34446296 124.14121002 1.67489808 122.80955028 -0.99438477 121.47729492 C-6.66177691 118.649228 -12.33075552 115.82435143 -18 113 C-24.585668 109.71909707 -31.17062087 106.43677417 -37.75387573 103.15103149 C-40.34427171 101.85900018 -42.93588733 100.56944118 -45.52758789 99.2800293 C-54.57352013 94.77078351 -63.56432195 90.1729826 -72.489151 85.42792511 C-79.48165909 81.71496001 -86.57400036 78.22485928 -93.70849609 74.79418945 C-95.76695918 73.80434491 -97.82309969 72.80980168 -99.87890625 71.81445312 C-107.27315239 68.24053829 -114.69074339 64.72056204 -122.14202881 61.26704407 C-125.11728743 59.88700994 -128.07711117 58.48810651 -131 57 C-129.515 56.505 -129.515 56.505 -128 56 C-126.3673663 53.78960128 -126.3673663 53.78960128 -124.8125 51.0625 C-121.27408623 45.32092294 -117.35323036 40.14398569 -113 35 C-112.31164062 34.17628906 -111.62328125 33.35257813 -110.9140625 32.50390625 C-83.16479956 0.39690708 -40.61524018 -8.2444918 0 0 Z " fill="#E69CB5" transform="translate(660,1072)"/>
<path d="M0 0 C1.64125854 -0.00939606 1.64125854 -0.00939606 3.31567383 -0.01898193 C22.58796535 -0.08869391 41.5061759 1.57530629 60.375 5.625 C61.84018066 5.93691284 61.84018066 5.93691284 63.33496094 6.25512695 C80.42802138 10.04800596 96.99456547 15.78472299 113.5 21.5625 C114.64243164 21.95783936 115.78486328 22.35317871 116.96191406 22.76049805 C126.33513398 26.11014726 135.53757638 29.96844409 142.875 36.875 C144.10283203 38.02548828 144.10283203 38.02548828 145.35546875 39.19921875 C147.25723365 41.12791129 148.98680734 43.08340854 150.6875 45.1875 C155.46895688 50.8986846 160.23747679 53.57283166 167.6875 54.375 C175.36411998 54.67321456 179.67096622 52.95174304 185.29296875 47.82421875 C188.10190524 44.87024251 190.57658344 41.72670178 193.0625 38.5 C204.42585017 23.76722824 216.71336152 15.51367118 234.5625 10.4375 C235.35785156 10.20289063 236.15320312 9.96828125 236.97265625 9.7265625 C297.15299114 -6.78414568 379.91302651 43.37748993 432.94786072 67.51887512 C473.12385024 85.80617234 513.17205978 103.56427018 556.25927734 113.88330078 C558.33050236 114.38167695 560.39448122 114.90064757 562.45703125 115.43359375 C571.25269606 117.69105405 580.09487771 119.74827763 588.9375 121.8125 C589.90657791 122.03882111 589.90657791 122.03882111 590.89523315 122.26971436 C597.78358174 123.87724189 604.67502759 125.46843105 611.578125 127.01171875 C623.82539558 129.76064992 635.88611545 132.784506 647.85253906 136.58178711 C649.93519762 137.23941938 652.02112195 137.88671619 654.10839844 138.52954102 C663.99598074 141.57642664 673.79626095 144.83491051 683.5625 148.25 C684.3804303 148.53529572 685.1983606 148.82059143 686.04107666 149.11453247 C703.6094905 155.25894094 721.02203406 161.81350705 738.4375 168.375 C808.36770957 195.53603388 808.36770957 195.53603388 880.5625 215.4375 C881.50456299 215.63778809 882.44662598 215.83807617 883.41723633 216.04443359 C891.15956607 217.5218331 898.79347017 217.74587878 906.64526367 217.69824219 C908.7579379 217.68745949 910.86977219 217.69823571 912.98242188 217.7109375 C922.37512097 217.72257952 930.89010644 217.67482068 938.9375 212.375 C944.88030062 208.5168961 949.53445495 207.6321033 956.5625 208.4375 C965.94704242 210.9745625 973.25209282 216.53561071 980.91357422 222.23144531 C991.50097791 229.97526738 1002.67079322 235.76023889 1015.1875 239.625 C1015.94345459 239.8629126 1016.69940918 240.1008252 1017.47827148 240.34594727 C1033.94508751 245.18215339 1051.16867117 246.2780455 1068.1875 247.625 C1070.36984818 247.80334627 1072.5521404 247.98237865 1074.734375 248.16210938 C1080.00979981 248.59512618 1085.28584421 249.01976515 1090.5625 249.4375 C1090.68756927 248.76814926 1090.81263855 248.09879852 1090.9414978 247.40916443 C1091.19741196 246.07825523 1091.19741196 246.07825523 1091.45849609 244.72045898 C1091.62481537 243.84485825 1091.79113464 242.96925751 1091.9624939 242.06712341 C1092.89261439 237.99072048 1094.45658747 234.29329417 1096.1875 230.5 C1096.53723877 229.72438721 1096.88697754 228.94877441 1097.24731445 228.1496582 C1101.27019765 219.51506757 1106.42402583 211.84382297 1113.5625 205.4375 C1114.490625 204.509375 1115.41875 203.58125 1116.375 202.625 C1120.07026285 199.49135199 1124.20039331 197.36423457 1128.5 195.1875 C1129.16813721 194.84614014 1129.83627441 194.50478027 1130.5246582 194.15307617 C1139.89375666 189.56275474 1148.23236179 189.1098198 1158.5625 189.1875 C1159.86179443 189.19499268 1161.16108887 189.20248535 1162.49975586 189.21020508 C1183.54305003 189.44584785 1202.59415196 194.11947715 1222.5625 200.4375 C1223.57626709 200.75734863 1224.59003418 201.07719727 1225.63452148 201.40673828 C1231.70499657 203.37224601 1237.57816052 205.62626117 1243.44824219 208.12451172 C1248.49954184 210.25416753 1253.61015776 212.23144524 1258.71511841 214.22824097 C1269.92133858 218.61304241 1281.1074149 223.04699079 1292.27734375 227.5234375 C1293.37743774 227.96423141 1294.47753174 228.40502533 1295.61096191 228.85917664 C1301.09149077 231.05586985 1306.57095641 233.25517921 1312.04931641 235.45727539 C1327.27916874 241.57152638 1342.54140163 247.47257727 1358.0625 252.8125 C1359.59970703 253.34423828 1359.59970703 253.34423828 1361.16796875 253.88671875 C1363.63218062 254.7388294 1366.09700988 255.58909659 1368.5625 256.4375 C1368.5625 257.0975 1368.5625 257.7575 1368.5625 258.4375 C1368.03618988 258.5957576 1367.50987976 258.7540152 1366.96762085 258.91706848 C1359.9568427 261.02559816 1352.94706011 263.13742505 1345.9375 265.25 C1344.76393951 265.60352539 1343.59037903 265.95705078 1342.3812561 266.32128906 C1328.31012499 270.56177738 1314.24843013 274.8300434 1300.20703125 279.16796875 C1155.122201 323.97476782 1155.122201 323.97476782 1089.5625 331.4375 C1088.39960449 331.5710791 1087.23670898 331.7046582 1086.03857422 331.84228516 C1076.22803146 332.92936675 1066.40609527 333.72754642 1056.5625 334.4375 C1055.63743652 334.5053772 1054.71237305 334.57325439 1053.75927734 334.64318848 C993.77761973 338.99557076 931.67365403 341.0843825 871.78833008 334.67504883 C869.45661875 334.42619996 867.12398305 334.18793868 864.79101562 333.95117188 C854.69613819 332.91780441 844.62604008 331.74137284 834.5625 330.4375 C833.55767578 330.30875488 832.55285156 330.18000977 831.51757812 330.04736328 C818.86233808 328.39164361 806.40909236 325.90116986 793.9453125 323.171875 C790.33191422 322.38744212 786.71309229 321.63150187 783.09375 320.875 C756.96561778 315.31707798 732.59690168 307.19689864 708.5625 295.4375 C707.43279785 294.89029297 707.43279785 294.89029297 706.28027344 294.33203125 C701.67452513 292.09660529 697.11254189 289.7838435 692.5625 287.4375 C691.85947754 287.07897949 691.15645508 286.72045898 690.43212891 286.35107422 C680.69423412 281.37848673 671.17487058 276.10582994 661.75 270.5625 C645.36712613 260.93412944 628.9908281 251.58693777 611.44189453 244.23388672 C609.63463446 243.46806672 607.84602641 242.65867642 606.05859375 241.84765625 C598.27048297 238.70630654 591.4466934 238.09789351 583.125 238.125 C582.13951172 238.10888672 581.15402344 238.09277344 580.13867188 238.07617188 C571.10582288 238.07018589 563.77196198 239.74902156 556.5625 245.4375 C554.16037751 247.86855347 551.9756838 250.4744326 549.79492188 253.10351562 C546.03705506 257.42533359 542.25304646 259.94766308 536.38647461 260.72631836 C533.99756819 260.87589301 531.64329261 260.90529484 529.25 260.875 C528.40622803 260.86670166 527.56245605 260.85840332 526.69311523 260.84985352 C520.23624274 260.67470329 515.21934988 259.6685995 509.5625 256.4375 C508.71816406 255.99792969 507.87382813 255.55835938 507.00390625 255.10546875 C500.29340281 251.42911805 494.15806736 247.06208121 487.9375 242.625 C478.83512093 236.15086322 469.50235184 230.52432192 459.5625 225.4375 C457.92474609 224.59638672 457.92474609 224.59638672 456.25390625 223.73828125 C435.94187678 213.87983128 412.98677767 207.07412446 390.67893982 203.75497437 C388.83337925 203.47813296 386.99028842 203.18492551 385.14770508 202.88891602 C370.17714992 200.78451593 355.0842122 201.08303586 340 201.125 C338.88440893 201.12708466 338.88440893 201.12708466 337.74628067 201.12921143 C278.89833775 201.24121392 220.51382043 207.49894025 162.00097656 213.28076172 C145.49272674 214.90959992 128.98212329 216.355898 112.4375 217.5625 C111.26816925 217.64810181 110.0988385 217.73370361 108.89407349 217.82189941 C91.45308034 219.09003346 74.05412425 220.25451318 56.5625 220.4375 C55.7385675 220.44738953 54.91463501 220.45727905 54.06573486 220.46746826 C48.22552185 220.53633096 42.38551 220.58363645 36.54495239 220.61071777 C34.60115125 220.62002616 32.65736006 220.63186469 30.71359253 220.64660645 C-24.94112197 221.01507163 -75.56985972 203.53393291 -126.05656433 181.62089539 C-171.7942563 160.56394077 -171.7942563 160.56394077 -220.3125 164.5625 C-240.99945539 173.64457798 -251.71289018 189.4445656 -262.5625 208.25 C-274.48124209 228.84196171 -274.48124209 228.84196171 -284.26953125 232.03515625 C-289.94209758 233.08790279 -296.2472135 233.88109792 -301.1875 230.625 C-301.93 229.573125 -302.6725 228.52125 -303.4375 227.4375 C-304.76886986 225.60274029 -306.10240319 223.76954951 -307.4375 221.9375 C-308.13359375 220.97457031 -308.8296875 220.01164063 -309.546875 219.01953125 C-318.0739378 207.37410044 -331.02992041 204.381732 -344.4375 201.4375 C-345.37770996 201.17271851 -345.37770996 201.17271851 -346.33691406 200.90258789 C-380.08440825 193.43060086 -420.64419761 212.58971298 -451.25292969 224.58691406 C-454.30349368 225.77468395 -457.37202567 226.91386165 -460.4375 228.0625 C-465.70494785 230.08687906 -470.78705744 232.42036658 -475.88989258 234.82543945 C-479.36800796 236.40592228 -482.87160025 237.84203356 -486.42578125 239.2421875 C-493.42971303 242.01898304 -500.38815022 244.89456578 -507.33221436 247.81784058 C-509.31800034 248.65362005 -511.3046858 249.48723397 -513.29150391 250.32055664 C-519.7468547 253.03024382 -526.19465949 255.75617332 -532.62890625 258.515625 C-543.20951746 263.04712832 -553.75126922 267.41808058 -564.65234375 271.1171875 C-568.39126956 272.39491565 -572.03395377 273.86943942 -575.6875 275.375 C-592.8250573 282.29142196 -610.40916015 287.41322479 -628.4375 291.4375 C-629.64019531 291.70691406 -630.84289062 291.97632813 -632.08203125 292.25390625 C-675.94686744 300.14405917 -713.98383767 284.53878013 -750.83984375 262.5625 C-766.14784715 253.4710054 -781.60132324 249.57627264 -799.34765625 253.24609375 C-813.18579988 257.7548012 -824.06876839 266.50079888 -834.4375 276.4375 C-844.53490679 285.70660389 -854.79552249 293.95204424 -867.4375 299.4375 C-868.1903125 299.76492188 -868.943125 300.09234375 -869.71875 300.4296875 C-885.69009151 306.87965234 -903.27468562 303.39237087 -918.64916992 297.00634766 C-930.58158652 291.80030742 -941.93040545 285.36555945 -953.34179688 279.12548828 C-960.65847331 275.13593774 -968.0226103 271.24121939 -975.4375 267.4375 C-976.07623047 267.10669434 -976.71496094 266.77588867 -977.37304688 266.43505859 C-993.82618823 257.99699685 -1011.58789348 252.92820938 -1030.0625 252.0625 C-1051.56044116 250.7682362 -1065.96212253 233.50316846 -1079.4375 218.4375 C-1080.69237687 216.98336102 -1081.94345301 215.52591491 -1083.1875 214.0625 C-1091.03215072 205.04211539 -1102.11765851 194.90770372 -1114.58984375 194.03125 C-1135.26048875 193.35153668 -1149.6888961 203.05144756 -1164.375 216.625 C-1166.4115124 218.5471185 -1168.42557182 220.48939851 -1170.4375 222.4375 C-1171.11425781 223.07429687 -1171.79101562 223.71109375 -1172.48828125 224.3671875 C-1177.12252575 228.82032359 -1181.09553136 233.78143353 -1185.10839844 238.79199219 C-1186.53951516 240.56380091 -1187.99058777 242.31784246 -1189.4453125 244.0703125 C-1202.24447935 259.53996383 -1213.54654514 275.90736032 -1224.61328125 292.6484375 C-1225.54261475 294.05367676 -1225.54261475 294.05367676 -1226.49072266 295.48730469 C-1227.88491076 297.60009237 -1229.27475428 299.71543269 -1230.66162109 301.83300781 C-1231.38559082 302.93225586 -1232.10956055 304.03150391 -1232.85546875 305.1640625 C-1233.51699951 306.17291504 -1234.17853027 307.18176758 -1234.86010742 308.22119141 C-1235.38064697 308.95257324 -1235.90118652 309.68395508 -1236.4375 310.4375 C-1236.7675 310.4375 -1237.0975 310.4375 -1237.4375 310.4375 C-1237.74153465 301.11796037 -1237.97107909 291.80017924 -1238.11105824 282.47672558 C-1238.1783176 278.14502983 -1238.26917593 273.81677535 -1238.41821289 269.48706055 C-1239.59621966 234.33603072 -1239.59621966 234.33603072 -1227.73657227 220.92797852 C-1226.87589645 220.02391769 -1226.87589645 220.02391769 -1225.99783325 219.10159302 C-1223.94107508 216.90806358 -1222.28037911 214.51054826 -1220.59765625 212.0234375 C-1219.56985572 210.61630869 -1218.53746302 209.21251997 -1217.5 207.8125 C-1216.92918701 207.04091553 -1216.35837402 206.26933105 -1215.77026367 205.47436523 C-1207.1246703 193.89293401 -1197.92029501 182.78919737 -1188.03515625 172.24609375 C-1186.0538975 170.10395083 -1184.14214701 167.93869981 -1182.2421875 165.7265625 C-1177.8818986 160.72288455 -1173.20179367 156.05563031 -1168.5 151.375 C-1167.64470703 150.51583984 -1166.78941406 149.65667969 -1165.90820312 148.77148438 C-1160.91342049 143.78432155 -1155.80772751 139.01610913 -1150.4375 134.4375 C-1149.46167969 133.58027344 -1148.48585938 132.72304688 -1147.48046875 131.83984375 C-1100.40705609 91.20602243 -1042.51641835 63.71203401 -981.4375 52.4375 C-980.05256348 52.16728027 -980.05256348 52.16728027 -978.63964844 51.89160156 C-936.73767946 43.72964706 -892.66474337 43.11645399 -850.25878906 47.16845703 C-847.68156308 47.41422573 -845.10399781 47.63261853 -842.5234375 47.83984375 C-837.15189022 48.28779489 -831.79569514 48.85259597 -826.4375 49.4375 C-825.7999176 49.50606201 -825.16233521 49.57462402 -824.50543213 49.64526367 C-802.43383778 52.02409034 -780.52380538 55.10982463 -758.625 58.75 C-757.46970795 58.94203003 -756.31441589 59.13406006 -755.12411499 59.33190918 C-750.41824346 60.11500254 -745.71256521 60.89924972 -741.0070343 61.68438721 C-721.10599199 64.99932413 -701.18257446 68.15744838 -681.21356201 71.03649902 C-679.45233356 71.29090772 -677.69142615 71.54755711 -675.93096924 71.80725098 C-649.57724834 75.69075534 -623.20619144 75.98344907 -596.6171875 76.11108398 C-576.08648027 76.22098685 -555.93762771 77.11732694 -535.6875 80.75 C-534.45942627 80.9665625 -533.23135254 81.183125 -531.96606445 81.40625 C-522.93337599 83.0506092 -514.13200201 85.09843905 -505.37158203 87.83886719 C-503.51545001 88.41337308 -501.64649386 88.94593931 -499.77734375 89.4765625 C-481.33044184 94.86903225 -463.57574552 102.62469057 -445.9375 110.1875 C-389.95406851 134.05299693 -337.23090667 132.46774997 -281.01171875 109.8984375 C-265.8738769 103.6668823 -251.11316609 96.67983694 -236.4375 89.4375 C-235.29458496 88.87627441 -234.15166992 88.31504883 -232.97412109 87.73681641 C-219.28066172 81.00383851 -205.73241505 74.06475101 -192.37109375 66.69140625 C-179.8162258 59.77571772 -167.1166052 53.12175734 -154.4375 46.4375 C-153.82334229 46.11356262 -153.20918457 45.78962524 -152.57641602 45.45587158 C-127.72753713 32.35668408 -102.94116452 19.86723404 -76.4375 10.4375 C-75.57914551 10.12554688 -74.72079102 9.81359375 -73.83642578 9.4921875 C-49.87940962 0.92956711 -25.1693076 0.06762091 0 0 Z " fill="#F6DDE6" transform="translate(1237.4375,593.5625)"/>
<path d="M0 0 C0.79612701 -0.00073643 1.59225403 -0.00147285 2.4125061 -0.0022316 C56.47617385 -0.04293349 113.07768487 0.90535966 153.875 41.25 C154.58785156 41.89066406 155.30070312 42.53132812 156.03515625 43.19140625 C157.9375 44.9375 157.9375 44.9375 159.63934326 46.8082428 C160.81900038 48.09665002 162.01305356 49.37701545 163.29860687 50.55978203 C171.96428653 58.68846039 174.70261644 67.43671846 175.15102768 79.05850315 C175.32977734 86.94299957 175.23801156 94.82136833 175.09172726 102.70550084 C175.01603983 107.48049658 175.00961052 112.25560961 174.99542236 117.03111267 C174.95831851 126.04830163 174.86011649 135.06371737 174.73922849 144.08013004 C174.60448683 154.35577212 174.53896855 164.6315048 174.47888327 174.90781224 C174.35389297 196.02285957 174.14320967 217.1363175 173.875 238.25 C171.33732273 235.78833852 169.46774255 233.27786545 167.5390625 230.3046875 C166.89348389 229.31839355 166.24790527 228.33209961 165.58276367 227.31591797 C164.55179565 225.73641357 164.55179565 225.73641357 163.5 224.125 C157.14676781 214.49349138 150.53181665 205.19758425 143.37451172 196.15087891 C141.88325041 194.26045876 140.41020442 192.35712689 138.94140625 190.44921875 C134.14559718 184.24123266 129.22222468 178.24534855 123.91015625 172.46484375 C122.09032831 170.48434003 120.31933669 168.47373723 118.5625 166.4375 C104.62172387 150.523372 89.83854847 135.93989512 72.875 123.25 C71.95654297 122.55414795 71.95654297 122.55414795 71.01953125 121.84423828 C62.57722939 115.45376391 53.99126054 109.64793826 44.875 104.25 C43.99457031 103.69054687 43.11414062 103.13109375 42.20703125 102.5546875 C-18.25721268 65.03719127 -92.40925382 70.45744165 -159.3125 82.5625 C-161.56643913 82.96487141 -163.82042739 83.36696762 -166.07446289 83.76879883 C-177.76467751 85.86301524 -189.42871048 88.04962681 -201.0625 90.4375 C-225.91401464 95.53191108 -250.89110035 99.71344624 -276.16894531 101.9831543 C-278.06555644 102.15436308 -279.96099099 102.33950637 -281.85449219 102.54223633 C-291.68046927 103.52293979 -301.51250624 103.36007984 -311.375 103.3125 C-313.19921752 103.30747327 -315.02343638 103.30291244 -316.84765625 103.29882812 C-321.27347132 103.28791939 -325.69922043 103.27071994 -330.125 103.25 C-327.41349819 100.53849819 -324.18982166 99.37577612 -320.72265625 97.87109375 C-319.97806152 97.54325897 -319.2334668 97.21542419 -318.46630859 96.87765503 C-316.87063744 96.17537495 -315.27409926 95.47506222 -313.67678833 94.77651978 C-309.51951102 92.95778422 -305.36900798 91.12374772 -301.21875 89.2890625 C-300.00458153 88.75267906 -300.00458153 88.75267906 -298.7658844 88.20545959 C-293.19897635 85.74060308 -287.6708703 83.20865271 -282.1875 80.5625 C-255.31453283 67.66529868 -227.78225819 56.18337027 -200.37231445 44.48999023 C-195.98021062 42.61600819 -191.59102601 40.73536265 -187.203125 38.8515625 C-169.67720109 31.34346355 -151.91912724 25.01907959 -133.80101013 19.10954285 C-129.83360705 17.81548616 -125.87964016 16.48683204 -121.9296875 15.140625 C-115.76819418 13.08540851 -109.53736882 11.37441718 -103.25 9.75 C-101.5031189 9.29826416 -101.5031189 9.29826416 -99.72094727 8.83740234 C-66.69491767 0.47347768 -33.8625614 0.01436361 0 0 Z " fill="#F3CEDA" transform="translate(3201.125,698.75)"/>
<path d="M0 0 C1.29929443 0.00749268 2.59858887 0.01498535 3.93725586 0.02270508 C24.98055003 0.25834785 44.03165196 4.93197715 64 11.25 C65.01376709 11.56984863 66.02753418 11.88969727 67.07202148 12.21923828 C73.14249657 14.18474601 79.01566052 16.43876117 84.88574219 18.93701172 C89.93704184 21.06666753 95.04765776 23.04394524 100.15261841 25.04074097 C111.35883858 29.42554241 122.5449149 33.85949079 133.71484375 38.3359375 C135.36498474 38.99712837 135.36498474 38.99712837 137.04846191 39.67167664 C142.52899077 41.86836985 148.00845641 44.06767921 153.48681641 46.26977539 C168.71666874 52.38402638 183.97890163 58.28507727 199.5 63.625 C200.52480469 63.97949219 201.54960937 64.33398438 202.60546875 64.69921875 C205.06968062 65.5513294 207.53450988 66.40159659 210 67.25 C210 67.91 210 68.57 210 69.25 C209.47368988 69.4082576 208.94737976 69.5665152 208.40512085 69.72956848 C201.3943427 71.83809816 194.38456011 73.94992505 187.375 76.0625 C186.20143951 76.41602539 185.02787903 76.76955078 183.8187561 77.13378906 C169.74762499 81.37427738 155.68593013 85.6425434 141.64453125 89.98046875 C-29.78155842 142.92228452 -29.78155842 142.92228452 -75 142.25 C-76.37664229 51.11628008 -76.37664229 51.11628008 -47 17.25 C-32.94494427 4.9115923 -18.49379353 -0.13906895 0 0 Z " fill="#F3CEDA" transform="translate(2396,782.75)"/>
</svg>
